<svg id="Layer_1" data-name="Layer 1" xmlns="http://www.w3.org/2000/svg" viewBox="0 0 362 252.72"><defs><style>.cls-1{fill:#9a7c88;opacity:0.3;}.cls-2{fill:#23203a;}.cls-3{fill:#656c9a;}.cls-4{fill:#7d86b2;}.cls-5{fill:#ffad97;}.cls-6{fill:#ffc5b3;}.cls-7{fill:#bf9b90;}.cls-8{fill:#dfc4b7;}.cls-9{fill:#efd9d0;}.cls-10{fill:#ea6f53;}.cls-11{fill:#ceafa3;}.cls-12{fill:#34324c;}.cls-13{fill:#fff;}.cls-14{fill:#44435e;}.cls-15{fill:#4f4f68;}.cls-16{fill:#ff8f80;}.cls-17{fill:#bc9c91;}.cls-18{fill:#a6acc6;}.cls-19{fill:#bf9c91;}.cls-20{fill:#ad887f;}.cls-21{fill:#e05a44;}.cls-22{fill:#ce4638;}.cls-23{fill:#bc978b;}.cls-24{fill:#ff816c;}.cls-25{fill:#545470;}.cls-26{fill:#8c7988;}.cls-27{fill:#ce4132;}.cls-28{fill:#575770;}.cls-29{fill:#bf9e94;}.cls-30{fill:#d6543e;}.cls-31{fill:#7f0057;}</style></defs><title>aArtboard 30</title><path class="cls-1" d="M109.23,186.44c0,4.78-7.29,8.66-16.28,8.66s-16.28-3.88-16.28-8.66S84,177.78,93,177.78,109.23,181.66,109.23,186.44Z"/><path class="cls-1" d="M274.26,142.29c0,5.69-8.67,10.31-19.38,10.31S235.5,148,235.5,142.29,244.18,132,254.88,132,274.26,136.6,274.26,142.29Z"/><ellipse class="cls-1" cx="239.6" cy="233.42" rx="11.56" ry="6.15"/><path class="cls-1" d="M304,122.89c0,4.49-6.84,8.13-15.28,8.13s-15.29-3.64-15.29-8.13,6.85-8.13,15.29-8.13S304,118.4,304,122.89Z"/><path class="cls-1" d="M184.52,44.41c0,4.49-6.85,8.13-15.29,8.13S154,48.9,154,44.41s6.84-8.13,15.28-8.13S184.52,39.92,184.52,44.41Z"/><path class="cls-1" d="M199.78,29.22c0,4.49-6.85,8.13-15.29,8.13s-15.28-3.64-15.28-8.13,6.84-8.13,15.28-8.13S199.78,24.73,199.78,29.22Z"/><polygon class="cls-1" points="129.78 73.06 93.45 93.96 74.26 82.9 110.63 62.07 129.78 73.06"/><path class="cls-1" d="M203,229.43a34.7,34.7,0,0,0-5.09.38c-.37-2-2.63-3.7-5.83-4.59l11.75-6.76-19.16-11L148.35,228.3l19.19,11.06,10.25-5.9a13.92,13.92,0,0,0,7.79,2.68,5.73,5.73,0,0,0-.94,3.08c0,5.41,8.24,9.79,18.4,9.79s18.41-4.38,18.41-9.79S213.21,229.43,203,229.43Z"/><polygon class="cls-1" points="154.51 57.78 135.56 68.77 119.98 59.71 138.96 48.8 154.51 57.78"/><polygon class="cls-1" points="87.42 115.78 72.3 124.54 52.37 112.75 67.52 104.07 87.42 115.78"/><path class="cls-1" d="M304.5,171.29l-12.8,7.33a11.18,11.18,0,0,1-11.28-.08L270,172.39a2.16,2.16,0,0,1,0-3.74l18.41-10.48a3.2,3.2,0,0,1,3.21,0l12.85,7.57A3.2,3.2,0,0,1,304.5,171.29Z"/><path class="cls-1" d="M256.2,123.75c10.77-6.22,9.41-17.18-3-24.36l-14.51-8.75c-12.44-7.18-31.43-8-42.2-1.75L92.39,149c-10.77,6.22-9.41,17.19,3,24.37l9.92,5.79c12.43,7.18,36,10.93,46.79,4.71Z"/><path class="cls-1" d="M283.85,81.45c0,4.88-7.43,8.84-16.61,8.84s-16.61-4-16.61-8.84,7.44-8.83,16.61-8.83S283.85,76.57,283.85,81.45Z"/><path class="cls-2" d="M257.56,75.84s-.91,1-2.13,2.18-1.47,1.42-2.52,2.44c-.61.59-.1,1.14,1.06,1.09a20.59,20.59,0,0,0,4.63-1,23,23,0,0,0,3.47-1.81,2.24,2.24,0,0,0,1-1.3V75.61Z"/><path class="cls-2" d="M272,78.12s-.21,1.88-.34,4.24.21,4.44.93,4.7,2.77.23,3.94-3a13,13,0,0,0,.47-6.45Z"/><path class="cls-3" d="M274.74,45.34c.43-6.72-3.64-9.75-3.64-9.75.3-2.26-11.26-.09-11.26-.09s-1.2,13.17-2.15,19.59c-1.08,7.28-.6,20.29-.6,20.29s.13,1.59,2.85,1.58a9.32,9.32,0,0,0,3.69-1,1.41,1.41,0,0,0,.78-1.73c-.29-.77.41-1.44,0-2.8a15.08,15.08,0,0,1-.79-4,51.07,51.07,0,0,1,.33-7.27l2.41-12s1.37,10.88,1.95,14.4.8,5.64,1.47,8.52c.29,1.23,1,1.59,1.29,3.17.18,1-.18,1.85-.25,3.73-.05,1.55,3.81,2.14,6.22.93s2.47-2,1.94-2.55-.74-.38-.43-3.39-1.44-7.52-3.28-11.66C275,55.94,274.54,48.43,274.74,45.34Z"/><path class="cls-3" d="M257.3,35.32c1.27-2.09,2.31-3.85,2.31-3.85.31-.36.13-1.12.44-1.53,1.16-1.34,1.51-7.54,1.51-7.54l2.14-6.51s-2.4-1.72-4.5,1.68c-2,3.23-4.5,12.66-4.5,12.66S256.37,35.67,257.3,35.32Z"/><path class="cls-4" d="M257.85,44a7.47,7.47,0,0,0,3.88,2.74,14.25,14.25,0,0,0,1.58-2.93,30.21,30.21,0,0,0,1,3.92,19.72,19.72,0,0,0,11-1.7c.38-2.78-.94-10.1-1-11.48-.28-4.63.63-11.87.47-13.08-.27-2-4.88-4.24-4.88-4.24s-3.28-2.54-6.67-1.2c0,0-3.62,2.93-4.06,7.06-.21,2.06,0,8.33,0,12.87C259.19,36.55,257.93,43.07,257.85,44Z"/><path class="cls-3" d="M265.71,19.86s-1.38,2.06-1.31,3.1.15,6.85,0,8.8c-.08,1-.6,4.39-.65,7.3a22.73,22.73,0,0,1-.44,4.76s-.17-2.44-.21-3.67.46-6.49.6-7.92.07-8.43,0-9.27,1.14-3.26,1.14-3.26Z"/><path class="cls-5" d="M264.56,15.91l-.18,2.53a3,3,0,0,0,.52,1.93,41.39,41.39,0,0,0,4.76-2.57l-.89-5Z"/><path class="cls-6" d="M269.26,7.41a4.19,4.19,0,0,0-6.89.51c-2.35,3.48-.13,9.18,1.93,8.85a8.05,8.05,0,0,0,4.9-3.1C270.48,11.57,270.19,8.59,269.26,7.41Z"/><path class="cls-2" d="M261.49,9.08a3.49,3.49,0,0,0,3.14,1.76,7.65,7.65,0,0,0,2.81-.39l-.13,2.1a1.89,1.89,0,0,0,.58-.08c.2-.79.54-1,.93-.64s.38,1.84.38,1.84a5.41,5.41,0,0,0,1.66-3.84c0-1.5-1.32-4.74-4.06-5.08a5.08,5.08,0,0,0-5.37,2.55A1.94,1.94,0,0,0,261.49,9.08Z"/><path class="cls-6" d="M266.55,37.57a7,7,0,0,0-.93.83,3.49,3.49,0,0,1-2.69.63A6.64,6.64,0,0,1,261,36.2c0-.51-.1-.91.78-1,0-1.14,3.65-.66,3.65-.66S266.41,34.73,266.55,37.57Z"/><polygon class="cls-7" points="257.02 37.45 263.98 41.53 258.07 31.52 251.12 27.44 257.02 37.45"/><polygon class="cls-8" points="263.98 41.53 264.63 41.13 258.72 31.12 258.07 31.52 263.98 41.53"/><polygon class="cls-9" points="251.12 27.44 251.76 27.05 258.72 31.12 258.07 31.52 251.12 27.44"/><path class="cls-10" d="M261.71,35.23l1.24-4.7a.33.33,0,0,1,.42-.25.34.34,0,0,1,.24.42l-1.2,4.61A4.85,4.85,0,0,0,261.71,35.23Z"/><path class="cls-6" d="M253.84,31.94c1.31-.33,1.95,1.67,2.53,3.08.53,1.26-.85,1.55-2.32.33S252.33,32.32,253.84,31.94Z"/><path class="cls-3" d="M278.33,29.05c-1-4.61-2.1-8.41-4.85-9.58-1.58-.67-2.6,3.78-2.32,6.37.32,3,1.3,3.9,2.54,6.06A37.3,37.3,0,0,0,265.15,34c1,1.32,1.49,4.69,1.49,4.69S276,37.31,278,36.33C279.35,35.63,279.05,32.33,278.33,29.05Z"/><path class="cls-3" d="M269.27,15.65a3.48,3.48,0,0,1,1.17,1,8.8,8.8,0,0,1,.72,1.29L266.47,22l-1.57-1.65Z"/><path class="cls-3" d="M264.41,17.27a12.14,12.14,0,0,0,.49,3.1l-1.8.47S262.67,18.17,264.41,17.27Z"/><polygon class="cls-11" points="123.55 48.52 135.38 55.32 135.38 66.77 123.55 59.98 123.55 48.52"/><polygon class="cls-8" points="151.11 46.38 135.38 55.32 135.38 66.77 151.11 57.84 151.11 46.38"/><polygon class="cls-12" points="136.96 57.94 149.28 50.94 149.28 56.67 136.96 63.66 136.96 57.94"/><polygon class="cls-13" points="137.74 61.43 148.55 55.29 148.55 56.22 137.74 62.35 137.74 61.43"/><polygon class="cls-2" points="123.55 48.57 131.94 53.32 135.38 55.32 135.38 57.09 123.55 50.36 123.55 48.57"/><polygon class="cls-12" points="151.11 46.44 135.38 55.37 135.38 57.09 151.11 48.17 151.11 46.44"/><polygon class="cls-14" points="151.11 46.44 142.47 41.54 126.99 50.48 135.38 55.37 151.11 46.44"/><polygon class="cls-12" points="146.92 43 131.19 51.93 131.19 52.98 146.92 44.05 146.92 43"/><polygon class="cls-12" points="144.93 47.12 138.24 50.99 138.24 52.04 144.93 48.17 144.93 47.12"/><polygon class="cls-15" points="146.92 43 139.03 38.53 123.55 47.47 131.19 51.94 135.55 49.46 138.24 51.02 144.96 47.12 142.33 45.61 146.92 43"/><path class="cls-11" d="M145.85,47c0,.3.45.55,1,.55s1-.25,1-.55-.46-.54-1-.54S145.85,46.67,145.85,47Z"/><rect class="cls-11" x="145.85" y="46.72" width="2.04" height="0.25"/><path class="cls-8" d="M145.85,46.72c0,.3.45.54,1,.54s1-.24,1-.54-.46-.54-1-.54S145.85,46.42,145.85,46.72Z"/><path class="cls-10" d="M146,46.67c0,.24.37.44.83.44s.83-.2.83-.44-.37-.44-.83-.44S146,46.43,146,46.67Z"/><polygon class="cls-10" points="147.7 46.67 147.5 45.01 146.24 45.01 146.04 46.67 147.7 46.67"/><path class="cls-16" d="M146.24,45c0,.19.28.34.63.34s.64-.15.64-.34-.29-.34-.64-.34S146.24,44.82,146.24,45Z"/><path class="cls-11" d="M134.22,53.71c0,.3.46.54,1,.54s1-.24,1-.54-.46-.54-1-.54S134.22,53.41,134.22,53.71Z"/><rect class="cls-11" x="134.22" y="53.46" width="2.04" height="0.25"/><path class="cls-8" d="M134.22,53.46c0,.3.46.54,1,.54s1-.24,1-.54-.46-.55-1-.55S134.22,53.16,134.22,53.46Z"/><path class="cls-12" d="M134.42,53.4c0,.25.37.44.82.44s.83-.19.83-.44-.37-.44-.83-.44S134.42,53.16,134.42,53.4Z"/><polygon class="cls-12" points="136.07 53.4 135.88 51.74 134.61 51.74 134.42 53.4 136.07 53.4"/><path class="cls-15" d="M134.61,51.74c0,.19.28.34.63.34s.64-.15.64-.34-.29-.33-.64-.33S134.61,51.56,134.61,51.74Z"/><polygon class="cls-2" points="131.19 51.93 131.19 53.26 123.55 48.75 123.55 47.47 131.19 51.93"/><polygon class="cls-2" points="135.55 49.46 135.55 50.5 138.24 52.04 138.24 51.02 135.55 49.46"/><polygon class="cls-13" points="138.42 50.37 143.94 47.16 141.77 45.91 136.26 49.12 138.42 50.37"/><polygon class="cls-16" points="125.3 47.86 128.56 45.97 127.92 45.61 124.66 47.51 125.3 47.86"/><polygon class="cls-16" points="126.58 48.6 129.84 46.7 129.2 46.35 125.94 48.25 126.58 48.6"/><polygon class="cls-12" points="127.49 49.77 142.95 40.77 142.31 40.39 126.85 49.39 127.49 49.77"/><path class="cls-11" d="M141.77,43.14c0,.35.53.63,1.18.63s1.18-.28,1.18-.63-.53-.62-1.18-.62S141.77,42.8,141.77,43.14Z"/><rect class="cls-11" x="141.77" y="42.64" width="2.36" height="0.51"/><path class="cls-9" d="M141.77,42.6c0,.35.53.63,1.18.63s1.18-.28,1.18-.63S143.6,42,143,42,141.77,42.26,141.77,42.6Z"/><path class="cls-11" d="M143,42.19c-.5,0-.91.21-1,.47a.13.13,0,0,1,0-.06c0-.28.43-.52,1-.52s1,.24,1,.52c0,0,0,0,0,.06C143.86,42.4,143.45,42.19,143,42.19Z"/><path class="cls-17" d="M143,43.12c-.5,0-.91-.2-1-.46s.46-.47,1-.47.91.21,1,.47S143.45,43.12,143,43.12Z"/><path class="cls-11" d="M139.05,44.72c0,.34.53.63,1.18.63s1.19-.29,1.19-.63-.53-.63-1.19-.63S139.05,44.37,139.05,44.72Z"/><rect class="cls-11" x="139.05" y="44.21" width="2.36" height="0.51"/><path class="cls-9" d="M139.05,44.18c0,.34.53.62,1.18.62s1.19-.28,1.19-.62-.53-.63-1.19-.63S139.05,43.83,139.05,44.18Z"/><path class="cls-11" d="M140.23,43.77c-.5,0-.91.2-1,.46a.43.43,0,0,0,0,0c0-.29.44-.52,1-.52s1,.23,1,.52a.43.43,0,0,0,0,0C141.15,44,140.74,43.77,140.23,43.77Z"/><path class="cls-17" d="M140.23,44.69c-.5,0-.91-.2-1-.46s.46-.46,1-.46.92.2,1,.46S140.74,44.69,140.23,44.69Z"/><path class="cls-11" d="M136.23,46.37c0,.35.53.63,1.18.63s1.19-.28,1.19-.63-.53-.63-1.19-.63S136.23,46,136.23,46.37Z"/><rect class="cls-11" x="136.23" y="45.86" width="2.36" height="0.51"/><ellipse class="cls-9" cx="137.41" cy="45.83" rx="1.18" ry="0.63"/><path class="cls-11" d="M137.41,45.42c-.5,0-.91.2-1,.46a.09.09,0,0,1,0-.05c0-.29.43-.52,1-.52s1,.23,1,.52c0,0,0,0,0,.05C138.32,45.62,137.92,45.42,137.41,45.42Z"/><path class="cls-17" d="M137.41,46.34c-.5,0-.91-.2-1-.46s.46-.46,1-.46.91.2,1,.46S137.92,46.34,137.41,46.34Z"/><path class="cls-11" d="M133.51,47.94c0,.35.53.63,1.19.63s1.18-.28,1.18-.63-.53-.63-1.18-.63S133.51,47.59,133.51,47.94Z"/><rect class="cls-11" x="133.52" y="47.44" width="2.36" height="0.51"/><path class="cls-9" d="M133.51,47.4c0,.35.53.63,1.19.63s1.18-.28,1.18-.63-.53-.63-1.18-.63S133.51,47.05,133.51,47.4Z"/><path class="cls-11" d="M134.7,47c-.51,0-.92.2-1,.46a.43.43,0,0,1,0-.05c0-.29.44-.52,1-.52s1,.23,1,.52a.43.43,0,0,1,0,.05C135.61,47.19,135.2,47,134.7,47Z"/><path class="cls-17" d="M134.7,47.92c-.51,0-.92-.21-1-.47s.46-.46,1-.46.91.2,1,.46S135.2,47.92,134.7,47.92Z"/><path class="cls-11" d="M130.5,49.63c0,.34.53.63,1.18.63s1.19-.29,1.19-.63-.53-.63-1.19-.63S130.5,49.28,130.5,49.63Z"/><rect class="cls-11" x="130.51" y="49.12" width="2.36" height="0.51"/><path class="cls-9" d="M130.5,49.09c0,.34.53.62,1.18.62s1.19-.28,1.19-.62-.53-.63-1.19-.63S130.5,48.74,130.5,49.09Z"/><path class="cls-11" d="M131.68,48.68c-.5,0-.91.2-1,.46a.43.43,0,0,0,0,0c0-.29.44-.52,1-.52s1,.23,1,.52a.43.43,0,0,0,0,0C132.6,48.88,132.19,48.68,131.68,48.68Z"/><path class="cls-17" d="M131.68,49.6c-.5,0-.91-.2-1-.46s.46-.46,1-.46.92.2,1,.46S132.19,49.6,131.68,49.6Z"/><path class="cls-12" d="M120.65,35.39l3.8-2.19a1.11,1.11,0,0,0,.65-.9c0-.43-.37-.9-1-1.27L118,27.53a5.38,5.38,0,0,0-2.6-.64,4,4,0,0,0-1.94.44l-1.83,1.06c-.26-.15-.52-.3-.77-.46l2.21-1.28a5.93,5.93,0,0,1,5.32.2l6.07,3.51a2.4,2.4,0,0,1,1.39,1.94,1.85,1.85,0,0,1-1,1.58L121.26,36Z"/><path class="cls-2" d="M91.9,87a4.22,4.22,0,0,0,1.76,3.36c1,.56,1.76,0,1.76-1.33a4.21,4.21,0,0,0-1.76-3.36C92.69,85.13,91.9,85.72,91.9,87Z"/><polygon class="cls-2" points="91.24 86.35 92.6 85.56 94.81 90.47 93.39 91.29 91.24 86.35"/><path class="cls-12" d="M90.48,87.84a4.22,4.22,0,0,0,1.76,3.36c1,.56,1.76,0,1.76-1.33a4.22,4.22,0,0,0-1.76-3.36C91.27,86,90.48,86.54,90.48,87.84Z"/><path class="cls-13" d="M91.24,88.34a2.16,2.16,0,0,0,.88,1.7c.49.28.89,0,.89-.67a2.14,2.14,0,0,0-.89-1.7C91.64,87.39,91.24,87.69,91.24,88.34Z"/><path class="cls-11" d="M94.18,85.82v2.89a11.16,11.16,0,0,1-1.48.62c-.8.26-1.12-.47-.87-1.44a29.35,29.35,0,0,1,1-2.87Z"/><polygon class="cls-8" points="94.18 85.82 95.61 85.01 95.61 87.9 94.18 88.71 94.18 85.82"/><polygon class="cls-9" points="95.29 84.69 94.18 85.33 93.06 84.68 92.8 85.02 94.18 85.82 95.61 85.01 95.29 84.69"/><path class="cls-2" d="M121.65,69.91a4.24,4.24,0,0,0,1.76,3.36c1,.56,1.75,0,1.75-1.33a4.2,4.2,0,0,0-1.75-3.36C122.44,68,121.65,68.61,121.65,69.91Z"/><polygon class="cls-2" points="120.98 69.24 122.34 68.44 124.55 73.36 123.14 74.17 120.98 69.24"/><path class="cls-12" d="M120.23,70.73A4.19,4.19,0,0,0,122,74.09c1,.56,1.75,0,1.75-1.33A4.2,4.2,0,0,0,122,69.4C121,68.84,120.23,69.43,120.23,70.73Z"/><path class="cls-13" d="M121,71.23a2.12,2.12,0,0,0,.89,1.69c.49.28.88,0,.88-.67a2.11,2.11,0,0,0-.88-1.69C121.38,70.28,121,70.58,121,71.23Z"/><path class="cls-11" d="M123.92,68.71V71.6a13,13,0,0,1-1.48.62c-.8.26-1.12-.47-.86-1.44a29.49,29.49,0,0,1,1-2.87Z"/><polygon class="cls-8" points="123.92 68.71 125.35 67.89 125.35 70.79 123.92 71.6 123.92 68.71"/><polygon class="cls-9" points="125.03 67.58 123.92 68.22 122.81 67.56 122.55 67.91 123.92 68.71 125.35 67.89 125.03 67.58"/><path class="cls-2" d="M78.44,79.13a4.21,4.21,0,0,0,1.76,3.36c1,.56,1.76,0,1.76-1.33A4.22,4.22,0,0,0,80.2,77.8C79.23,77.24,78.44,77.84,78.44,79.13Z"/><polygon class="cls-2" points="77.78 78.46 79.13 77.67 81.34 82.58 79.93 83.4 77.78 78.46"/><path class="cls-12" d="M77,80a4.21,4.21,0,0,0,1.76,3.36c1,.56,1.76,0,1.76-1.33a4.22,4.22,0,0,0-1.76-3.36C77.81,78.06,77,78.66,77,80Z"/><path class="cls-13" d="M77.78,80.46a2.12,2.12,0,0,0,.88,1.69c.49.28.89,0,.89-.67a2.12,2.12,0,0,0-.89-1.69C78.17,79.5,77.78,79.8,77.78,80.46Z"/><path class="cls-11" d="M80.71,77.93v2.9a11.22,11.22,0,0,1-1.48.61c-.79.26-1.11-.47-.86-1.44a29.35,29.35,0,0,1,1-2.87Z"/><polygon class="cls-8" points="80.71 77.93 82.14 77.12 82.14 80.01 80.71 80.83 80.71 77.93"/><polygon class="cls-9" points="81.83 76.8 80.71 77.45 79.6 76.79 79.34 77.13 80.71 77.93 82.14 77.12 81.83 76.8"/><polygon class="cls-3" points="79.67 41.38 94.54 49.95 94.54 85.5 79.67 76.94 79.67 41.38"/><polygon class="cls-4" points="124.84 32.48 94.54 49.95 94.54 85.5 124.84 68.08 124.84 32.48"/><polygon class="cls-13" points="95.25 50.53 124.16 33.94 124.16 37.38 95.25 53.93 95.25 50.53"/><polygon class="cls-3" points="94.54 55.26 124.84 37.79 124.84 38.7 94.54 56.13 94.54 55.26"/><polygon class="cls-12" points="104.08 46.25 117.07 38.75 117.07 39.92 104.08 47.4 104.08 46.25"/><polygon class="cls-13" points="95.25 56.79 124.16 40.2 124.16 43.64 95.25 60.19 95.25 56.79"/><polygon class="cls-3" points="94.54 61.51 124.84 44.04 124.84 44.96 94.54 62.39 94.54 61.51"/><polygon class="cls-12" points="104.08 52.5 117.07 45.01 117.07 46.18 104.08 53.65 104.08 52.5"/><polygon class="cls-13" points="95.25 62.97 124.16 46.38 124.16 49.83 95.25 66.38 95.25 62.97"/><polygon class="cls-3" points="94.54 67.7 124.84 50.23 124.84 51.15 94.54 68.57 94.54 67.7"/><polygon class="cls-12" points="104.08 58.69 117.07 51.2 117.07 52.37 104.08 59.84 104.08 58.69"/><polygon class="cls-13" points="95.25 69.3 124.16 52.71 124.16 58.53 95.25 75.08 95.25 69.3"/><polygon class="cls-12" points="104.08 65.02 117.07 57.52 117.07 58.69 104.08 66.17 104.08 65.02"/><polygon class="cls-3" points="94.54 76.87 124.84 59.4 124.84 60.32 94.54 77.75 94.54 76.87"/><polygon class="cls-13" points="95.25 78.39 124.16 61.8 124.16 67.61 95.25 84.16 95.25 78.39"/><polygon class="cls-12" points="104.08 74.1 117.07 66.61 117.07 67.78 104.08 75.25 104.08 74.1"/><polygon class="cls-18" points="124.84 32.48 94.54 49.95 79.67 41.38 109.98 23.97 124.84 32.48"/><polygon class="cls-8" points="94.54 85.5 125.35 67.75 125.35 68.68 94.54 86.43 94.54 85.5"/><polygon class="cls-9" points="94.54 84.92 124.84 67.45 125.35 67.75 94.54 85.52 94.54 84.92"/><polygon class="cls-11" points="94.54 85.5 79.15 76.64 79.15 77.56 94.54 86.43 94.54 85.5"/><polygon class="cls-8" points="80.43 44.04 93.43 51.53 93.43 53.05 80.43 45.56 80.43 44.04"/><polygon class="cls-9" points="94.54 84.92 79.67 76.34 79.15 76.64 94.54 85.52 94.54 84.92"/><path class="cls-12" d="M79.85,45.83,81.28,45l.33.71-1.37.8a1.11,1.11,0,0,0-.65.9,1.65,1.65,0,0,0,1,1.26l6,3.49a5.12,5.12,0,0,0,4.53.21l1.32-.77.34.69L91.55,53a4.77,4.77,0,0,1-2.33.54,6.12,6.12,0,0,1-3-.74l-6-3.49a2.38,2.38,0,0,1-1.39-1.94A1.83,1.83,0,0,1,79.85,45.83Z"/><path class="cls-12" d="M92.4,51.78a.62.62,0,0,0,.26.49c.14.08.25,0,.25-.19a.61.61,0,0,0-.25-.49C92.52,51.51,92.4,51.59,92.4,51.78Z"/><path class="cls-12" d="M81.2,45.19a.62.62,0,0,0,.26.49c.14.08.25,0,.25-.2a.6.6,0,0,0-.25-.48C81.32,44.91,81.2,45,81.2,45.19Z"/><path class="cls-19" d="M92.39,43.5a1.53,1.53,0,0,1,.16-.26,2.51,2.51,0,0,1,2.26-.73,2.31,2.31,0,0,0,1.5-.27c.7-.41,8.57-5,9.46-5.51l1.67,1c-1.43.81-9.38,5.4-9.47,5.46-.27.17-.2.45-.14.67a1.19,1.19,0,0,1-.58,1.33,2.6,2.6,0,0,1-2,.43.3.3,0,0,1,.06-.11l.66-.85c.13-.18-.32-.49-.95-.68s-1.09-.21-1.25-.08a7,7,0,0,0-.84.88.73.73,0,0,1-.09.09v-.47Z"/><path class="cls-20" d="M92.39,43.5l.44.86v.47A1,1,0,0,1,92.39,43.5Z"/><rect class="cls-20" x="92.28" y="43.49" width="0.59" height="0.45"/><path class="cls-19" d="M108.4,36.1a1.39,1.39,0,0,0-1-.55,2.45,2.45,0,0,0-1.21.35l2,.34Z"/><path class="cls-19" d="M106,36.06a1.81,1.81,0,0,1,.87-.22v.35h0l-.19,0v-.32l-.36,0v.46a.65.65,0,0,0-.1.15c.14,0,.24.08.24.13s-.09.1-.24.11a.56.56,0,0,0,.19.26.45.45,0,0,1,.34,0c.08.05.07.13,0,.19a1.46,1.46,0,0,0,.41.11.17.17,0,0,1,.2-.15.27.27,0,0,1,.23.15,1.07,1.07,0,0,0,.27-.06c-.09-.07-.11-.14,0-.18a.42.42,0,0,1,.34,0,.71.71,0,0,0,.12-.18c-.15,0-.27-.07-.28-.13s.11-.11.27-.11a.56.56,0,0,0-.18-.24V36l.24.11c.67.4.75,1,.16,1.33a2.55,2.55,0,0,1-2.29-.1C105.5,37,105.43,36.4,106,36.06Z"/><path class="cls-19" d="M107.67,36.27a2.22,2.22,0,0,0-.37-.09v-.33A2.44,2.44,0,0,1,108,36l-.14.18Z"/><path class="cls-20" d="M108,36l-.29,0v.44a.09.09,0,0,0,0,.09.47.47,0,0,0,.35,0V36Z"/><path class="cls-20" d="M106.65,36.43a.41.41,0,0,1-.32,0V36l.36,0v.48S106.67,36.42,106.65,36.43Z"/><path class="cls-20" d="M106.89,35.84v-.12h.41v.13A2.84,2.84,0,0,0,106.89,35.84Z"/><path class="cls-20" d="M107.11,36.32a.25.25,0,0,1-.22-.13v-.35a2.84,2.84,0,0,1,.41,0v.33A.16.16,0,0,1,107.11,36.32Z"/><rect class="cls-19" x="107.15" y="37.11" width="0.87" height="0.35"/><path class="cls-20" d="M106.47,36.24v.41s-.2,0-.25-.13a.65.65,0,0,1-.06-.23Z"/><rect class="cls-19" x="108.43" y="36.43" width="0.43" height="0.43"/><polygon class="cls-20" points="106.81 36.66 106.81 36.86 106.67 36.79 106.81 36.66"/><rect class="cls-19" x="97.37" y="43.68" width="0.5" height="0.43"/><polygon class="cls-20" points="107.98 36.36 107.98 36.74 108.22 36.81 108.35 36.52 107.98 36.36"/><polygon class="cls-20" points="107.76 36.7 107.76 37.08 108 37.15 108.13 36.86 107.76 36.7"/><path class="cls-19" d="M95.24,45.12v.46a1.21,1.21,0,0,0,.62-.09,1.49,1.49,0,0,0,.3-.45Z"/><path class="cls-8" d="M96.31,41.78c.7-.41,8.57-5,9.46-5.52l1.67,1C106,38,98.06,42.62,98,42.68c-.27.18-.2.46-.14.67a1.19,1.19,0,0,1-.58,1.33,2.64,2.64,0,0,1-2,.44A.4.4,0,0,1,95.3,45a1.83,1.83,0,0,0,1.25-.17c.65-.36,1-.8.92-1.27s-.74-1.06-1.83-1.26a3.63,3.63,0,0,0-2.45.18c-.76.56-.92,1.15-.27,1.8a.51.51,0,0,1-.09.08,1,1,0,0,1-.28-1.59A2.56,2.56,0,0,1,94.81,42,2.26,2.26,0,0,0,96.31,41.78Z"/><path class="cls-9" d="M93.19,42.48a3.63,3.63,0,0,1,2.45-.18c1.09.2,1.67.69,1.83,1.26s-.27.91-.92,1.27A1.83,1.83,0,0,1,95.3,45l.66-.85c.13-.18-.32-.49-.95-.68s-1.09-.21-1.25-.08a7,7,0,0,0-.84.89C92.27,43.63,92.43,43,93.19,42.48Z"/><path class="cls-9" d="M105,37.62a1,1,0,0,0-.95,0L97.6,41.36c-.24.14-.21.39.07.55h0a1.08,1.08,0,0,0,1,0L105,38.17c.24-.15.21-.39-.08-.55Z"/><path class="cls-8" d="M106.18,36.92c-.68-.4-.75-1-.16-1.33a2.55,2.55,0,0,1,2.29.1c.67.39.75,1,.16,1.32A2.54,2.54,0,0,1,106.18,36.92Zm1.89-.91a.43.43,0,0,1-.35,0c-.08-.05-.07-.13,0-.19a1.67,1.67,0,0,0-.44-.11.18.18,0,0,1-.19.14.3.3,0,0,1-.23-.14.89.89,0,0,0-.28.07c.09.07.12.14.05.18a.46.46,0,0,1-.32,0,.45.45,0,0,0-.1.14c.14,0,.24.08.24.13s-.09.11-.24.12a.59.59,0,0,0,.19.25.4.4,0,0,1,.34,0c.08,0,.07.12,0,.19a1.89,1.89,0,0,0,.41.1.18.18,0,0,1,.2-.15.26.26,0,0,1,.23.16,1.07,1.07,0,0,0,.27-.06c-.09-.07-.11-.15,0-.19a.47.47,0,0,1,.34,0,.66.66,0,0,0,.12-.17c-.15,0-.27-.08-.28-.14s.11-.1.27-.11A.63.63,0,0,0,108.07,36Z"/><polygon class="cls-20" points="107.44 37.22 107.44 37.69 97.97 43.15 97.97 42.68 107.44 37.22"/><path class="cls-11" d="M104.9,30.38c0,1,1.46,1.84,3.27,1.84s3.27-.83,3.27-1.84-1.47-1.84-3.27-1.84S104.9,29.36,104.9,30.38Z"/><path class="cls-11" d="M111.09,31.2a2.9,2.9,0,0,0,.9-2c0-.88-3.47.27-3.47.27Z"/><path class="cls-11" d="M105.23,31.2a2.9,2.9,0,0,1-.9-2c0-.88,3.48.27,3.48.27Z"/><rect class="cls-8" x="104.33" y="15.59" width="7.67" height="13.45"/><path class="cls-8" d="M104.33,29c0,1.2,1.72,2.16,3.84,2.16S112,30.24,112,29s-1.71-2.16-3.83-2.16S104.33,27.85,104.33,29Z"/><path class="cls-11" d="M104.33,15.59c0,1.2,1.72,2.16,3.84,2.16s3.83-1,3.83-2.16-1.71-2.16-3.83-2.16S104.33,14.4,104.33,15.59Z"/><path class="cls-12" d="M107,20.1a6.39,6.39,0,0,0,1.18.11c2.12,0,3.84-1,3.84-2.16v9.38c0,1.19-1.72,2.15-3.84,2.15a6.39,6.39,0,0,1-1.18-.11Z"/><path class="cls-11" d="M108.25,11.46l1.67-.12a15.16,15.16,0,0,1,2,3.79c.41,1.48-1.62,1.47-3.67,1.12Z"/><path class="cls-11" d="M108.69,11.46l-2.31-.12a15.27,15.27,0,0,0-2,3.79c-.42,1.48,2.24,1.47,4.3,1.12Z"/><path class="cls-8" d="M106.31,11.6c0,.57.82,1,1.83,1s1.84-.46,1.84-1-.82-1-1.84-1S106.31,11,106.31,11.6Z"/><rect class="cls-8" x="106.31" y="10.16" width="3.67" height="1.43"/><path class="cls-9" d="M106.31,10.16c0,.57.82,1,1.83,1s1.84-.46,1.84-1-.82-1-1.84-1S106.31,9.59,106.31,10.16Z"/><path class="cls-11" d="M107,10.07c0,.36.52.65,1.15.65s1.16-.29,1.16-.65-.52-.65-1.16-.65S107,9.71,107,10.07Z"/><rect class="cls-3" x="106.97" y="8.99" width="2.31" height="1.08"/><path class="cls-13" d="M107.48,21a6.05,6.05,0,0,0,1.06.1c1.91,0,3.45-.87,3.45-1.94v.5c0,1.07-1.54,1.94-3.45,1.94a6.05,6.05,0,0,1-1.06-.1Z"/><path class="cls-13" d="M110.48,22.94s1.37,2.28,0,3.09S110.48,22.94,110.48,22.94Z"/><path class="cls-12" d="M108.78,7.51v2.9a2.7,2.7,0,0,1-.65.07v-3Z"/><path class="cls-12" d="M107.92,7.51v3a2.52,2.52,0,0,1-.56-.08V7.51Z"/><path class="cls-12" d="M109.54,7.51v2.61a2,2,0,0,1-.55.24V7.51Z"/><path class="cls-12" d="M107.15,7.51v2.82a2,2,0,0,1-.54-.27V7.51Z"/><path class="cls-12" d="M106.22,7.51h.18V9.86a.73.73,0,0,1-.18-.45Z"/><path class="cls-12" d="M110,7.51v1.9a.77.77,0,0,1-.27.55V7.51Z"/><path class="cls-2" d="M109.76,7.51V10l-.22.16V7.51Z"/><path class="cls-2" d="M109,7.51v2.85l-.21.05V7.51Z"/><path class="cls-2" d="M108.13,7.51v3h-.21v-3Z"/><path class="cls-2" d="M107.36,7.51v2.88l-.21-.06V7.51Z"/><path class="cls-2" d="M106.61,7.51v2.55a1.34,1.34,0,0,1-.21-.2V7.51Z"/><path class="cls-14" d="M106.22,7.51c0,.6.85,1.08,1.9,1.08S110,8.11,110,7.51s-.85-1.07-1.91-1.07S106.22,6.92,106.22,7.51Z"/><path class="cls-12" d="M106.61,7.51c0,.46.67.84,1.49.84s1.48-.38,1.48-.84-.66-.83-1.48-.83S106.61,7.05,106.61,7.51Z"/><path class="cls-6" d="M246.08,163.6s2.21.1,4.06,5,1.68,5.42,1.43,7c-.37,2.36-2.56,5.58-4.2,7.38a21.2,21.2,0,0,1-3.25,2.88l-2.3-3.2Z"/><path class="cls-6" d="M242.49,230.49c-1.33-.66-2.59-1.47-2.19-2.23a1.38,1.38,0,0,1,1-.56c1.22.41,1.83.68,1.83.68s.1-8.61-.4-15.36a57.7,57.7,0,0,0-1.48-8.77c-.17-1,5.44-2.19,5.44-2.19-1.46.64,1,5,1.25,9.87.26,6.22-.83,13.64-1,15.68a10.32,10.32,0,0,0,0,2.6l-1.45.64A3.61,3.61,0,0,1,242.49,230.49Z"/><path class="cls-2" d="M247.06,232.14c-.44,1.06-1.46,1-3.53.22a17.86,17.86,0,0,1-4.64-2.37c-1.3-1-1.32-1.09-1.49-1.75-.24-.91,1.09-1.42,3.31-.73l.61.19a1.38,1.38,0,0,0-1,.56c-.4.76.86,1.57,2.19,2.23a3.61,3.61,0,0,0,3.07.36l1.45-.64C247.14,231.1,247.33,231.51,247.06,232.14Z"/><path class="cls-6" d="M235.2,234.67c-1.32-.66-2.58-1.47-2.18-2.22a1.32,1.32,0,0,1,1-.57c1.22.41,1.83.68,1.83.68s-1-23.91-1.47-26.85c-.17-1,5.84,0,5.84,0a21.71,21.71,0,0,0-.47,4.55c.66,2.71.54,5.68.16,10a83.94,83.94,0,0,0-.19,14.15c-.32.13-1,.42-1.46.64A3.66,3.66,0,0,1,235.2,234.67Z"/><path class="cls-2" d="M239.78,236.33c-.44,1-1.46.95-3.53.21a17.86,17.86,0,0,1-4.64-2.37c-1.31-1-1.32-1.09-1.49-1.74-.24-.92,1.09-1.43,3.3-.74l.61.19a1.32,1.32,0,0,0-1,.57c-.4.75.86,1.56,2.18,2.22a3.66,3.66,0,0,0,3.07.37c.49-.22,1.14-.51,1.46-.64C239.86,235.28,240.05,235.69,239.78,236.33Z"/><path class="cls-6" d="M240.28,151.25c-.52.36-2.43.8-3,5-.47,3.73.35,4.7,1.11,5a8.91,8.91,0,0,0,1.9.17l-.05,3.15a5.32,5.32,0,0,0,3.61,0l1.77-.73a6.25,6.25,0,0,1-.57-3.26c.14-2.56,1-6.21.41-7.56A3.66,3.66,0,0,0,240.28,151.25Z"/><path class="cls-10" d="M235.16,184.73a72.55,72.55,0,0,0,.84-9.21s-1.43-4.35-.08-7.08,2.83-3.4,4.13-3.84,5.58-1.62,5.58-1.62,3.56,4.37,2.63,8.46c-1.55,6.8-4,8-3.57,11.19a72.73,72.73,0,0,1,3.18,7.31c.5,2.08,1.9,16.64,1.9,16.64s-5.44,4.23-10,3.68c-3.73-.45-6.82-3.68-6.82-3.68S234.51,187.67,235.16,184.73Z"/><path class="cls-6" d="M237.6,167.11c-.79.07-2,1.47-2.84,4.53-.82,2.88-.87,8.05-1.34,10.2-.34,1-1.88,8.19-2.29,10.68a10.82,10.82,0,0,0-1.43,5.38c-.07,3.76,1.68,4,2.63,2.87.77-.94,1.12-5.21,1.22-6.71a27.73,27.73,0,0,1,2.13-5.64,25.15,25.15,0,0,0,2-4.7,123,123,0,0,0,2.12-12.15C239.87,169,238.71,167,237.6,167.11Z"/><path class="cls-6" d="M238.43,156.88s1.1-1.9,1.58,0a1.92,1.92,0,0,1-1.09,2.35Z"/><path class="cls-2" d="M239.76,149.8c1.12-.52,2.44-1.83,4.91-.21a9.77,9.77,0,0,1,3.75,7.35c-.18,1.79-1.57,3.86,1.08,5.33s3,2.31,2.22,4.37-1.88,3-.35,4a3.66,3.66,0,0,1,1.19,5c-1.42,1.58-2.49,1.15-2.31,2.22.3,1.84,1.61,3.83-.62,4.79a3,3,0,0,1-3.61-.47s2.4.16,2.4-1.67-1.37-.53-4.63-.83c-3.7-.35-3.71-2.09-3.87-5.1s-4.35-3.3-2.74-5.56,3.61-2.89,1.25-3.65c-1.25-.4-1.38-3.08-.93-4.08.7-1.56,2.84-2.27,1.32-3.65-.82-.75-3.27-1.31-2.31-5.44C236.76,151.09,238.48,150.39,239.76,149.8Z"/><path class="cls-21" d="M249.69,205.71a21.25,21.25,0,0,1,.78,4.6c-.14,1.2-1.11.86-2.51,1.62s.35,2.65-1.87,2.65c-1.59,0,0,2.71-3.14,2-2.69-.62-.69,1.31-1.81,1.83a7.78,7.78,0,0,1-3.77.58c-1.92-.1-1.44,1.65-3.75,1.29a4,4,0,0,1-2.37-2.36c-.25-.94,2.48-20.27,2.48-20.27s1,7.76,6.5,8.09A75.52,75.52,0,0,0,249.69,205.71Z"/><path class="cls-8" d="M249.62,205c.16,1.7.2,2,.2,2a13.19,13.19,0,0,1-9.9.59,11.11,11.11,0,0,1-6.83-6.59l.71-3.8s2.38,5.87,7.56,7.45A14.71,14.71,0,0,0,249.62,205Z"/><path class="cls-22" d="M172,155.33l-17.8-10.42s3.12-6.06,10.73-3.95a50.74,50.74,0,0,1,11.93,4.76Z"/><path class="cls-2" d="M164.87,152.59c0,7.1-4.33,15.35-9.66,18.42s-9.64-.2-9.64-7.3,4.34-15.35,9.67-18.42S164.88,145.49,164.87,152.59Z"/><polygon class="cls-2" points="149.19 171.66 155.44 175.27 167.15 148.09 160.66 144.38 149.19 171.66"/><path class="cls-12" d="M171.13,156.21c0,7.1-4.33,15.35-9.66,18.42s-9.64-.2-9.64-7.3,4.34-15.35,9.67-18.42S171.14,149.11,171.13,156.21Z"/><path class="cls-13" d="M168.42,157.77c0,5.11-3.11,11-6.95,13.24s-6.93-.14-6.92-5.25,3.11-11,6.94-13.24S168.43,152.67,168.42,157.77Z"/><path class="cls-12" d="M165.38,159.73c0,2.6-1.59,5.63-3.55,6.76s-3.54-.07-3.54-2.68,1.6-5.64,3.55-6.76S165.38,157.12,165.38,159.73Z"/><path class="cls-23" d="M164.79,160.07a7.06,7.06,0,0,1-3,5.63c-1.63.94-3-.06-2.94-2.23a7.07,7.07,0,0,1,3-5.64C163.47,156.9,164.79,157.89,164.79,160.07Z"/><path class="cls-22" d="M245.92,112.68l-17.79-10.42s3.11-6.06,10.72-4a51,51,0,0,1,11.94,4.76Z"/><path class="cls-24" d="M260.7,75.42s-21.34-17.25-38.26-21.05c-7-1.58-14.61,1.91-20.48,2.4l-6.32,6.15,45.43,27.92,18.6-9.9C261.41,79.93,262.43,76.43,260.7,75.42Z"/><path class="cls-4" d="M118,108.6c2,2.44,6,6.16,14,11.76,19.26,13.52,32.93,12.51,32.93,12.51l10.67-18.78c-11.16-5.16-28-12.59-35.11-13.94S123.88,104.4,118,108.6Z"/><path class="cls-18" d="M134.3,83.11l-17.88,21.15s-1.26.89,1.57,4.34c5.89-4.2,15.36-9.81,22.51-8.45s23.95,8.78,35.11,13.94l2.92-5.14Z"/><path class="cls-16" d="M134.3,83.11s1.95,2.85,13.63,11c10.87,7.56,30.6,14.87,30.6,14.87s14.12-10.68,25.31-16.89,30.71-14.38,30.71-14.38L202,56.77s-8.61-8.46-23.37-.76C173,58.9,163,65.06,149,73.6,143.72,76.79,138.47,80.27,134.3,83.11Z"/><path class="cls-10" d="M135.68,85.5s9.78-6,23.72-13.91,32.1-18.41,32.1-18.41l1.69.53s-7.54,4.52-14.61,8.43c-5.74,3.17-42.24,24.53-42.24,24.53Z"/><path class="cls-10" d="M170.28,105.68s9.78-6,23.73-13.91S226.1,73.36,226.1,73.36l1.7.53s-7.54,4.53-14.62,8.44c-5.74,3.17-42.24,24.52-42.24,24.52Z"/><path class="cls-16" d="M230,75.39,239.41,77l9.51,5.21s-18.56-2.42-20.43-3.19S230,75.39,230,75.39Z"/><path class="cls-2" d="M238.8,109.93c0,7.11-4.33,15.35-9.66,18.42s-9.65-.2-9.64-7.3,4.33-15.35,9.66-18.42S238.81,102.83,238.8,109.93Z"/><polygon class="cls-2" points="223.12 129 229.36 132.62 241.07 105.44 234.58 101.73 223.12 129"/><path class="cls-12" d="M245.06,113.56c0,7.1-4.34,15.34-9.66,18.41s-9.65-.19-9.64-7.3,4.33-15.35,9.66-18.42S245.07,106.45,245.06,113.56Z"/><path class="cls-13" d="M242.34,115.12c0,5.1-3.11,11-6.94,13.24s-6.93-.15-6.93-5.25,3.12-11,6.95-13.24S242.35,110,242.34,115.12Z"/><path class="cls-12" d="M239.31,117.07c0,2.61-1.6,5.64-3.55,6.76s-3.54-.07-3.54-2.68,1.59-5.63,3.55-6.76S239.31,114.46,239.31,117.07Z"/><path class="cls-23" d="M238.71,117.41a7.06,7.06,0,0,1-3,5.64c-1.63.94-2.95-.06-2.95-2.24a7.06,7.06,0,0,1,3-5.63C237.4,114.24,238.72,115.24,238.71,117.41Z"/><path class="cls-10" d="M260.7,75.42c-4.21.76-8,6.9-15.61,5.5-2.12-.39-8.61-2.86-13.93-2.48-5.67.41-8.81,2.52-13.92,5.54-4,2.39-18.45,10.53-29.47,17.62-6.17,4-10.44,6.32-12,9-1.12,1.85-5,11-8.88,18.19A18.4,18.4,0,0,1,164,132.7L94.08,119.77a33.24,33.24,0,0,0-6.46,11.46c-1,2.8-3.88,9.8-2.5,16.15,1.24,5.76,5.31,11.78,12.72,16.07,25.54,14.79,40,11.41,50.61,5.48,0-9.42,5.77-20.32,12.83-24.39s12.76.23,12.8,9.59l49.59-28.63c.31-2.48,1.64-10.5,3-12.84,2.75-4.71,9.69-11.23,12.78-10.93,9.85,1,5.77,11.33,7.48,10.34l3.76-2.17c7.73-4.45,11.67-13.29,12.94-18.86C264.34,88,264.12,77.67,260.7,75.42Z"/><path class="cls-24" d="M248.07,109.77c0-10.44-6.4-15.23-14.27-10.7a27,27,0,0,0-9.09,9.58c-1.32.82-2.7,1.68-4.12,2.59-7.45,4.79-39.54,23.11-51.38,29.84-2.48-1.37-5.69-1.22-9.21.8-7.87,4.54-14.27,16.7-14.31,27.2.37-.2.73-.41,1.09-.62l1.58-.91c0-.1,1.6-.71,1.6-.81,0-8.69,4.8-18.21,11.32-22a9.92,9.92,0,0,1,3.85-1.37l-.32.19,4.15.87c1.92,1.57,3,4.75,3,9.18,0,.09,0,.19,0,.28l2.32-1.34a15.93,15.93,0,0,0-2.29-8.89l31.82-17.78c4.37-2.44,17-8.24,17-8.24-.7,1.61-1.09,4.47-1.31,8.6.37-.2.73-.41,1.09-.62l1.58-.91c0-.11,1.6-.71,1.6-.81a28.31,28.31,0,0,1,2.09-10.34l.51-.28,4-5.85,5.41-5.13c.88-.56-.81.29-3.89,2a16.78,16.78,0,0,1,3.19-2.42c6.52-3.76,11.36.07,11.35,8.76,0,.09-.67.3-.67.39Z"/><path class="cls-21" d="M161.28,144.54c-7.06,4.07-12.79,15-12.83,24.39l1-.56,1.41-.82c0-.09,0-.17,0-.27,0-7.79,4.75-16.84,10.6-20.21s10.58.22,10.58,8c0,.09,0,.17,0,.25l2.08-1.2C174,144.77,168.33,140.48,161.28,144.54Z"/><path class="cls-16" d="M206.18,59.43s6.64-4.47,14.32-2.71,16.25,7.87,16.25,7.87L223.36,70Z"/><path class="cls-21" d="M235.2,101.89c-7.06,4.06-12.79,15-12.83,24.38l1-.55,1.41-.82c0-.09,0-.18,0-.27,0-7.79,4.76-16.84,10.6-20.21s10.59.22,10.58,8c0,.08,0,.16,0,.25l2.08-1.2C248,102.12,242.25,97.82,235.2,101.89Z"/><path class="cls-12" d="M116.42,104.26s-8.77,6.2-20.93,14.35c-6,4-7.59,14.62,6.5,23.84,16.47,10.77,28.47,10.34,38.93,4.24,11.25-6.55,24-13.82,24-13.82s-8.66-.05-25.92-10.28A97.89,97.89,0,0,1,116.42,104.26Z"/><path class="cls-12" d="M172.63,131.6a1.64,1.64,0,0,1-2.32-2.06c2.89-6.8,8.4-19.16,10.76-20.69,3.08-2,13.76-8.36,26.79-16.09,9.63-5.71,18.18-10.68,22.21-9.55,1.57.43,5.84,3.35,9,5.58a2.85,2.85,0,0,1-.25,4.79Z"/><path class="cls-14" d="M190.89,52.78s13.06,7.15,19,11C218.61,69.57,230.36,76,230.36,76l13.33,3.44c-3.62-2.2,0,0-7-3.94-10-5.63-20.92-12.57-22.69-13.67-2.44-1.5-7.17-4-9.7-5.28C199.14,53.91,192.5,52.57,190.89,52.78Z"/><path class="cls-13" d="M118.15,159.45c1.4-2.67,3.87-4.68,6.86-4.33,2.27.27,2.57-.09,6.26-.46a25.68,25.68,0,0,0,9.87-3.35c2.59-1.55,2.82,1.1,2.54,2.1a11.66,11.66,0,0,1-7.83,7.77C126.82,164.12,118.15,159.45,118.15,159.45Z"/><path class="cls-12" d="M114.12,150.36c2.44.52,4.94,1.11,6.6,1.48l.43-.5s-11.61-2.61-19.67-8.17a28.64,28.64,0,0,1-7.74-7.72l-.28,1a31.27,31.27,0,0,0,3,4.32C99.67,144.92,110.1,149.51,114.12,150.36Z"/><path class="cls-12" d="M113.37,152.51c1.94.41,4,.89,5.65,1.26l1-1.12c-1.8-.38-4.23-.92-6.55-1.52-4.46-1.17-10.87-4.57-15.07-7.42a16.35,16.35,0,0,1-5.21-6.17l-.44,1.61A26.9,26.9,0,0,0,95.66,143C99.18,146.85,109.36,151.66,113.37,152.51Z"/><path class="cls-12" d="M96.74,148.36a16.07,16.07,0,0,1-4.84-5.47,5.62,5.62,0,0,0,1.85,4.22,35.74,35.74,0,0,0,6.79,4.84,100.68,100.68,0,0,0,11.27,5.33,4.75,4.75,0,0,0,4.29-.48c-1.35-.3-2.84-.65-4.29-1C107.35,154.6,101,151.2,96.74,148.36Z"/><path class="cls-12" d="M97.63,145.86a19.41,19.41,0,0,1-5.21-5.58l-.32,1.17,0,.16a37.83,37.83,0,0,0,2.7,3.85c3.26,4.1,13.7,8.7,17.71,9.54l4.56,1,.06-.06,1.2-1.36c-1.66-.35-3.67-.81-5.6-1.32C108.24,152.1,101.84,148.71,97.63,145.86Z"/><path class="cls-14" d="M94.77,145.46a37.83,37.83,0,0,1-2.7-3.85,5.55,5.55,0,0,0-.17,1.28,16.07,16.07,0,0,0,4.84,5.47c4.21,2.84,10.61,6.24,15.07,7.41,1.45.38,2.94.73,4.29,1A4.69,4.69,0,0,0,117,156l-4.56-1C108.47,154.16,98,149.56,94.77,145.46Z"/><path class="cls-14" d="M113.37,152.51c-4-.85-14.19-5.66-17.71-9.55a26.9,26.9,0,0,1-2.93-3.81l-.31,1.13a19.41,19.41,0,0,0,5.21,5.58c4.21,2.85,10.61,6.24,15.07,7.41,1.93.51,3.94,1,5.6,1.32l.72-.82C117.39,153.4,115.31,152.92,113.37,152.51Z"/><path class="cls-14" d="M98.38,143.71c4.2,2.85,10.61,6.25,15.07,7.42,2.32.6,4.75,1.14,6.55,1.52l.72-.81c-1.66-.37-4.16-1-6.6-1.48-4-.85-14.45-5.44-17.71-9.55a31.27,31.27,0,0,1-3-4.32l-.29,1A16.35,16.35,0,0,0,98.38,143.71Z"/><path class="cls-13" d="M90.16,125.2s-.29,3.65-.3,7.62a29.1,29.1,0,0,1-1.26,7s-1.48-5.59-1.28-7.6A14.43,14.43,0,0,1,90.16,125.2Z"/><path class="cls-12" d="M90.13,154.31s0-7.3,4.56-4.14a78.14,78.14,0,0,0,10.69,6.47c3.38,1.6,5.81,2.75,6.77,4.52s1,6.48,1,6.48-3.21-.16-14.1-6.32C90.88,156.7,90.13,154.31,90.13,154.31Z"/><path class="cls-13" d="M93.55,151.29v4.37s3.36,2.37,6,4.12c1.76,1.14,8.47,4.21,8.47,4.21v-4.2s-4.75-2.15-8.46-4.29A44.53,44.53,0,0,1,93.55,151.29Z"/><path class="cls-21" d="M84.77,144.62s-.63,6.31,2.51,10.87,11.07,12.72,25.18,16.77c15.79,4.53,25.87,3.09,31.71.47s6.52-2.43,6.67-5.18-2.39-.87-2.39-.87-2.57,4.33-14.83,5.08a68.05,68.05,0,0,1-21.82-2.87c-6.19-1.84-12.28-5.61-18.26-10C85.11,152.77,84.77,144.62,84.77,144.62Z"/><path class="cls-12" d="M122,165.42a.9.9,0,0,0-.76,1.34,8.23,8.23,0,0,0,1.57,2.14c2,1.87,11.26,2,12.29,1s.34-4-2.12-3.88C129.61,166.18,125,165.38,122,165.42Z"/><path class="cls-12" d="M85.37,138.55s.68,3.15,1.15,4.38-1.75,1.69-1.75,1.69A31.83,31.83,0,0,1,85.37,138.55Z"/><path class="cls-13" d="M105.07,149.51c-.28.86-1.87.93-3.57.15s-2.85-2.1-2.58-3,1.87-.92,3.57-.14S105.34,148.66,105.07,149.51Z"/><path class="cls-12" d="M114.62,105.53s1.11,2.54,7.21,7.32c5.9,4.63,18.74,13.7,27.16,17.07s13.83,5.5,15.95,3,12.88-24.34,12.88-24.34l-1.23-.5s-11.46,22.3-12.86,23.52-12.08-2.82-31-15.15c-7.19-4.69-16.29-12.14-16.29-12.14Z"/><path class="cls-12" d="M134.3,83.11l-.85,1a97.35,97.35,0,0,0,15.07,11.36c8.4,5,28.49,14.17,28.49,14.17l.81-1.12S159.14,100.63,149.1,94A151.29,151.29,0,0,1,134.3,83.11Z"/><polygon class="cls-21" points="223.94 122.49 173.14 151.79 173.13 154.65 173.89 154.21 224.57 124.98 223.94 122.49"/><path class="cls-4" d="M200.22,99v14.73l-21.69,12.52s-.05-5.59,0-7.87a13.46,13.46,0,0,1,1.35-5.1,12.81,12.81,0,0,1,4.53-4.79C190.22,104.91,200.22,99,200.22,99Z"/><path class="cls-4" d="M203.06,97.67v14.79L225.94,99a72.71,72.71,0,0,0-.27-7.3c-.27-1.48-1.06-5.93-1.06-5.93Z"/><path class="cls-4" d="M226.71,85.16s.84,4.17,1.07,5.67.35,7,.35,7,5.2-3.13,6.4-3.75,2.17-2.36-1-4.73A72.16,72.16,0,0,0,226.71,85.16Z"/><path class="cls-12" d="M262.83,80l-.3.19a3,3,0,0,0-1.37,2.52v3.36a47.89,47.89,0,0,1-.48,6.07l3.13-2a12.76,12.76,0,0,0,.86-7.09A4.52,4.52,0,0,0,262.83,80Z"/><path class="cls-24" d="M245.07,100.84a109.57,109.57,0,0,0,16.42-9.3,25.73,25.73,0,0,0,2.82-2.75s.84,1.25-2.18,5.4c-1,1.41-11.66,9.1-14.92,10.2C245.71,100.86,245.07,100.84,245.07,100.84Z"/><path class="cls-8" d="M107.07,131.5a1,1,0,0,1-.34-.07c-.33-.15-3.28-1.48-3.44-3.59-.09-1.11.58-2.12,2-3,4.25-2.67,15.08-7.36,15.54-7.56a.86.86,0,0,1,1.12.44.84.84,0,0,1-.44,1.12c-.11,0-11.18,4.84-15.32,7.44-.46.3-1.23.87-1.19,1.43.07.86,1.67,1.82,2.43,2.15a.86.86,0,0,1-.34,1.64Z"/><path class="cls-8" d="M112.64,128.24a.8.8,0,0,1-.42-.11c-1-.55-5.88-3.47-5.84-6.15a2.5,2.5,0,0,1,1.55-2.22c4-2.13,11.17-5.42,11.25-5.45a.86.86,0,0,1,1.13.42.87.87,0,0,1-.42,1.13c-.08,0-7.19,3.3-11.16,5.41-.65.34-.65.63-.65.73,0,1.23,3,3.5,5,4.65a.85.85,0,0,1,.32,1.16A.84.84,0,0,1,112.64,128.24Z"/><path class="cls-23" d="M120.72,126.36a144.35,144.35,0,0,0-15.48,9l-.06-.57-4.85-.25a20.53,20.53,0,0,0-1,6c0,.3,4,3,8.44,5.31a45,45,0,0,0,9.36,3.83,3.64,3.64,0,0,0,1.61-.74,88.58,88.58,0,0,1,9.93-6.9c8.3-4.94,14.81-8.23,15.7-8.55C143.4,132.9,127.41,123.05,120.72,126.36Z"/><path class="cls-25" d="M144.41,133.53l.05,0C144.56,133.49,144.53,133.48,144.41,133.53Z"/><path class="cls-8" d="M101.1,136.86a1.83,1.83,0,0,1-.15-3.07,152.68,152.68,0,0,1,19.77-12c6.91-3.42,23.74,7.21,23.74,7.21.8-.58-6.32,2.91-15.75,8.52a88.58,88.58,0,0,0-9.93,6.9,3.61,3.61,0,0,1-4.09.3Z"/><path class="cls-11" d="M120.84,123.18s-7.13,4.56-10.61,6.43-6.67,4.69-6.71,6.27,1.12,1.05,4.44-1.46,16.53-9.8,16.53-9.8Z"/><path class="cls-11" d="M125.13,126.09s-7.13,4.56-10.61,6.44-6.67,4.69-6.71,6.26,1.12,1.06,4.45-1.45,16.52-9.81,16.52-9.81Z"/><path class="cls-11" d="M130.47,128.65s-7.12,4.56-10.61,6.44-6.67,4.69-6.71,6.26,1.13,1.06,4.45-1.45,16.52-9.81,16.52-9.81Z"/><path class="cls-8" d="M130.88,145a10.43,10.43,0,0,1-5.69-2.1.87.87,0,0,1-.14-1.2.86.86,0,0,1,1.2-.14s3.78,2.91,6.78,1.18c3.55-2.06,18.18-10.37,18.18-10.37l.84,1.48s-14.62,8.31-18.17,10.36A5.84,5.84,0,0,1,130.88,145Z"/><path class="cls-8" d="M140,143.51c-3.84,0-8.21-4.24-8.78-4.81a.86.86,0,0,1,1.21-1.21c1.59,1.6,6.29,5.42,8.85,4,3.63-2,13.39-8.16,13.49-8.22a.85.85,0,0,1,.91,1.44c-.4.25-9.9,6.25-13.57,8.27A4.28,4.28,0,0,1,140,143.51Z"/><path class="cls-6" d="M110.44,145.34s2.44-.38,3.65-.71.6.56.28.71a3,3,0,0,0-1.12,1c.15.49.77,1.56,1.08,2.33.82,2-.6,2.92-2,2.08a31,31,0,0,1-3.77-2.65Z"/><path class="cls-6" d="M102.73,119.59a13.41,13.41,0,0,0-3,4.16c-1,2.19-4.14-1.39-4.14-1.39l2.09-5.57Z"/><path class="cls-6" d="M101.14,111.17c4-1.34,5.19,7.29,3.22,10.25-1.82,2.72-6.87,0-8-2.3S96.38,112.78,101.14,111.17Z"/><path class="cls-12" d="M98.05,185.79s4.21-1.88,6.29-2,2.29,2.36,0,4.25-4,2.15-5.9,2.92c-1.68.69-2.29.75-3.63-.13-1.8-1.16-.36-4.23-.36-4.23Z"/><path class="cls-12" d="M83.69,181.51A21.23,21.23,0,0,1,89.12,180c2.08-.09,2.83,1.71.54,3.6a17.12,17.12,0,0,1-5.58,3.09c-1.68.69-2.28.73-3.63-.13-1.85-1.17-.41-4.24-.36-4.23Z"/><path class="cls-3" d="M96.42,121.51s-3.83-4.11-8-.8c-3.81,3-7.49,8.71-6.51,11.57s4.19,4.62,4.19,4.62Z"/><path class="cls-3" d="M97.14,148.17s3.49,13.75,4.36,18.49c.57,3.07-.45,10.22-.69,14.72-.13,2.44,1,2.77.37,4.3a5.93,5.93,0,0,1-3.72,2.69c-2.91.79-4,.41-4.31-.7a7.38,7.38,0,0,1-.63-3.85c.59-2.92,0-3.8,0-6.33a51.45,51.45,0,0,1,1-8.31S89,158.69,88.6,158c.62,4,0,7.13-.29,9.77-.25,2.84-.09,5.71-.66,9.55-.17,1.14-.76,1.34-1,2.94-.14.95,1,2,.12,2.62-1.49,1.07-6.73,3.39-7.9,1.27-1-1.74.6-1.69.37-3.42-.11-.87-.84-1.54-.81-2.93.06-2.47,1.06-8.19,1.09-10.17,0-2.43.54-8,.64-11.84.15-5.45,1.17-10.14,3.14-11.73C86.19,141.67,97.14,148.17,97.14,148.17Z"/><path class="cls-4" d="M84.1,128.27c1.65-3.2,5.18-7.51,8-8.09,3-.62,7.78,2.15,11,5.36s-2.21,8-2.21,8a35.23,35.23,0,0,1-.92,5c-.48,1.74-1.14,4.78-1.41,6-1.24,5.52-.22,8.33-.22,8.33s-6.43,3.49-9.71,2.5-8.76-5-9.09-6.06C79.81,146.22,80.82,134.62,84.1,128.27Z"/><path class="cls-3" d="M101.18,123.87a3.32,3.32,0,0,0,0-1.9c-.79-1.35-3.05-1.83-4.14-2.32-2.32-1-3.12.52-3.06.53S101.18,123.87,101.18,123.87Z"/><path class="cls-3" d="M98,148.49a16.92,16.92,0,0,1-2.65,1.44c-1.22.48-2.74,1.2-2.74,1.2v-1.68l5.48-2.52Z"/><path class="cls-3" d="M102.73,125.22a5.15,5.15,0,0,1,2.55,5.61,58.9,58.9,0,0,0-.32,7s5.17,5.71,6.38,6.86c1.53,4.12-2.37,4.87-2.37,4.87a88,88,0,0,1-7.79-4.87c-1.41-1.25-3.08-1.64-3.08-5.56C98.1,137,98.82,123.08,102.73,125.22Z"/><path class="cls-2" d="M103,111c-1.38-.76-3.27-1.81-5.77-.61-2.24,1.07-2.86,4.41-3.26,5.39a3.89,3.89,0,0,1-1.42,1.47,2.28,2.28,0,0,0,1.74-.49,8.52,8.52,0,0,0,0,2.75c.06.44.45,2.18.45,2.18a6,6,0,0,1,1.45-1.25,11.77,11.77,0,0,0-.33,2.58,29.28,29.28,0,0,1,2.79-2.15,3.78,3.78,0,0,0,.56,2c.61-1.3,2.81-1.7,4.83-5C105.15,116.16,107.52,113.52,103,111Z"/><path class="cls-10" d="M115.23,106.12s-15-2-21.5-1.31c-4.52.47,9.27,7,15.38,11.89,7.28,5.81,15.5,14.42,27.79,16.14,3.67.52,24.62,2,24.62,2L163,134a116,116,0,0,1-17.81-7C133.62,121.24,120.32,112.55,115.23,106.12Z"/><path class="cls-26" d="M93,104.67s-.32.63,0,1,1.47-.2,1.47-.2Z"/><path class="cls-24" d="M115.23,105.1s-14.85-1.52-21.38-.84c-4.52.47,9.15,6.54,15.26,11.42,7.28,5.8,15.5,14.41,27.79,16.14C140.57,132.34,163,134,163,134S127.43,120.52,115.23,105.1Z"/><path class="cls-16" d="M129.68,127.39s2.22,2.07,8.61,2.71,16.93.54,16.93.54l-6.54-2.9Z"/><path class="cls-16" d="M101.39,108.2s-1.63-2.53,3.08-2.36,12.29,1,12.29,1l2.77,2.8Z"/><path class="cls-6" d="M245,107.57c-.1.5.26.72.77,1.24.14.14-1.33.49-1.33.49l.46,2.77,3.39-1.07,1.34-1.91s-1.88,0-2.27-.47a4.85,4.85,0,0,0-1.51-.68C245.37,107.78,245,107.35,245,107.57Z"/><path class="cls-2" d="M264.65,135.24a17.86,17.86,0,0,1,3.48.42c.77.23,2.13.71,2,1.87a40.51,40.51,0,0,0-.39,5.71c0,.68.1,1.53-1.83,2.18a4.08,4.08,0,0,1-4.05-.83c-.56-.52-1.4-1.83,1.21-2.24a2.23,2.23,0,0,0-1.8-2.46C262.47,139.64,263.3,135.26,264.65,135.24Z"/><path class="cls-2" d="M255,141a18,18,0,0,1,3.48.42c.77.23,2.13.71,2,1.87a39.05,39.05,0,0,0-.39,5.71c0,.68.09,1.53-1.83,2.18a4.08,4.08,0,0,1-4-.83c-.57-.52-1.4-1.83,1.21-2.24a2.24,2.24,0,0,0-1.8-2.46C252.84,145.37,253.68,141,255,141Z"/><path class="cls-3" d="M254.23,138.51c3.35.65,9.75,2.46,9.75,2.46a13.51,13.51,0,0,1,.73-3.95,4.71,4.71,0,0,1,1.74-1.82l-10.76-4.49-6.3,4.2S251.28,137.94,254.23,138.51Z"/><path class="cls-3" d="M265.21,123.94l-14.32,2s-4.27,3.31-8.25,6.78a16.89,16.89,0,0,0-4,6c-1,2.24,1.86,4.07,4.91,5.12,2.79,1,10.31,2.93,10.31,2.93a7.94,7.94,0,0,1,1-3.9,13.71,13.71,0,0,1,2.07-2.16l-3.13-1.28c4.63-1.14,9.74-2.33,11.39-5.62C266.68,130.88,265.21,123.94,265.21,123.94Z"/><path class="cls-3" d="M257.58,103.84s3.57,0,4.47,2.89a10.69,10.69,0,0,1,.3,5.32l-4.43-2.31Z"/><path class="cls-6" d="M253.78,93.68a3.54,3.54,0,0,1,5,1.73c.63,1.31-.25,4.84-.39,7.32a6,6,0,0,0,.56,3.15l-1.72.71a5.22,5.22,0,0,1-3.5,0l.06-3a8.32,8.32,0,0,1-2.17-.57c-.78-.71-1.19-2.83-.83-5.57C251.38,93.33,253.29,94,253.78,93.68Z"/><path class="cls-4" d="M247.11,128.92a12.41,12.41,0,0,0,10.1,6.32c3.06.13,6.54-2.77,8.56-3.84.26-2.9-.14-5.38,0-7.69.32-7.69-1.23-12.43-2.45-14.85a9.81,9.81,0,0,0-3.25-4l-6.25.93a7.82,7.82,0,0,0-3.36,2.43c-.95,1.23-3.36,4.06-2.35,6.22C249.24,116.94,248.32,125.83,247.11,128.92Z"/><path class="cls-3" d="M253.35,105.4c1-.11,2.87.15,4.43-.88s2.25.35,2.25.35a4.77,4.77,0,0,1-2.56,2.09c-1.74.56-4.21,1-5.93.13A1.83,1.83,0,0,1,253.35,105.4Z"/><path class="cls-2" d="M249.81,93.1a3.12,3.12,0,0,0,2.12-.43c-.39-.11-.74-.67-1-1.14a14.22,14.22,0,0,1,7.47.21c1.74.92,3.53,2.35,2.58,6.74-.76,3.54-1.78,4.39-2.85,5.22a5,5,0,0,1-3.39-3.25s.94-1.86.21-2.52-1.56.42-1.74.87C252,97.89,249.81,96,249.81,93.1Z"/><path class="cls-3" d="M249.07,124.31a30.92,30.92,0,0,0,2.68,3.54,7,7,0,0,0,1.6,1.32l-1.17,1.26a14.71,14.71,0,0,1-1.84-2.08c-.85-1.2-1.45-2.27-1.45-2.27Z"/><path class="cls-6" d="M230.52,117.08a4.23,4.23,0,0,1-1.63-1.4c-.37-.78-.59-1.22-.95-1.22s-.43.48-.31.79.71,1.67.43,1.8a8.48,8.48,0,0,1-2,.36,21.08,21.08,0,0,0-1,3.89,6,6,0,0,0,1.38.11c1.53-.06,4.88,0,4.88,0Z"/><path class="cls-3" d="M253.32,111.53c0-1.24-.53-4.42-1.9-4.42-4.12,0-6.28,6.39-9.92,8s-11,1.42-11,1.42a6.5,6.5,0,0,0-1.56,2.54,5.57,5.57,0,0,0,.4,3.18s10.52,1.45,14.16,0S253.68,119,253.32,111.53Z"/><path class="cls-2" d="M136.24,224.75a16,16,0,0,1-8.4-2.81c-2.9-1.78-4.45-3.92-4.6-6.35-.36-5.65,7.09-11.65,10.67-14.53,2.31-1.85,3.47-3.56,3.66-5.38.29-2.67-1.54-5.56-4.38-9.08-4.49-5.56-4.15-11.34-3.79-17.47.07-1,.13-2.1.17-3.16.06-1.64.17-3.25.28-4.8a34.89,34.89,0,0,0,.06-8c-.26-1.35-1.84-2.42-2.89-3.13l-.24-.17c-2.94-2-5.81-4.24-5.84-4.26a.35.35,0,0,1-.06-.47.34.34,0,0,1,.48-.06s2.88,2.24,5.8,4.24l.24.16c1.14.77,2.85,1.93,3.17,3.56a35.26,35.26,0,0,1,0,8.22c-.11,1.55-.22,3.15-.28,4.77,0,1.07-.1,2.13-.16,3.18-.36,6-.69,11.66,3.63,17,2.95,3.64,4.84,6.67,4.53,9.58-.21,2-1.45,3.85-3.9,5.83-3.5,2.81-10.76,8.65-10.43,14,.14,2.2,1.58,4.15,4.28,5.82,8.61,5.3,13.07,1.79,17.39-1.6.87-.68,1.77-1.39,2.68-2,5.24-3.5,8.76-5.45,8.79-5.47a.34.34,0,0,1,.33.59s-3.53,2-8.75,5.44c-.88.59-1.73,1.26-2.63,2C143.28,222.44,140.33,224.75,136.24,224.75Z"/><path class="cls-10" d="M55.73,112.9l0,0Z"/><path class="cls-24" d="M65.63,86.76l-9,5.18a3.33,3.33,0,0,0-1.38,2.64v16.23l4.63-4L64,108.63l1.67-1A3.33,3.33,0,0,0,67,105V87.81C67,86.79,66.39,86.32,65.63,86.76Z"/><path class="cls-27" d="M55.73,112.9l6.5,3.72L66,109.53l-2-.9-7.3,4.22A.86.86,0,0,1,55.73,112.9Z"/><path class="cls-27" d="M55.28,110.81v1a1.3,1.3,0,0,0,.4,1.07l0,0a.86.86,0,0,0,.93-.05l7.3-4.22-4.05-1.78Z"/><polygon class="cls-10" points="71.96 87.66 65.67 84.04 65.03 84.5 71.18 88 71.96 87.66"/><polygon class="cls-24" points="66.47 86.66 73.08 90.44 69.28 96.28 62.9 92.13 66.47 86.66"/><path class="cls-21" d="M72.1,111.37l-9,5.18c-.76.44-1.38,0-1.38-1V98.28a3.33,3.33,0,0,1,1.38-2.64l9-5.18c.76-.44,1.39,0,1.39,1.05v17.22A3.34,3.34,0,0,1,72.1,111.37Z"/><path class="cls-21" d="M73.34,90.77l-1-2.68a.71.71,0,0,0-1.14-.34l-1.25.73L69.56,93Z"/><path class="cls-21" d="M61.79,97.83a17.16,17.16,0,0,1,.86-3.76,3.85,3.85,0,0,1,1.58-2.31l1.88-1.07.34,4S61.79,99.23,61.79,97.83Z"/><path class="cls-10" d="M66.92,87.06l-1-2.68A.72.72,0,0,0,64.76,84l-1.25.74-.37,4.46Z"/><path class="cls-24" d="M55.29,94.28a17.88,17.88,0,0,1,.94-3.91,3.87,3.87,0,0,1,1.58-2.32L59.69,87l2.1,3.71S55.29,95.68,55.29,94.28Z"/><polygon class="cls-16" points="69.93 88.48 63.51 84.78 64.76 84.04 71.18 87.75 69.93 88.48"/><polygon class="cls-10" points="63.51 84.78 63.23 88.14 69.65 91.88 69.93 88.48 63.51 84.78"/><polygon class="cls-16" points="66.11 90.69 59.69 86.98 57.81 88.05 64.23 91.76 66.11 90.69"/><polygon class="cls-10" points="61.75 98.28 55.28 94.58 55.28 111.8 61.75 115.51 61.75 98.28"/><polygon class="cls-27" points="66.95 89.32 65.34 90.25 62.62 88.67 65.72 86.87 66.95 89.32"/><path class="cls-27" d="M65.38,87.72a1.92,1.92,0,0,0,1,1.64c.53.21.94-.18.92-.88a1.92,1.92,0,0,0-1-1.64C65.77,86.63,65.36,87,65.38,87.72Z"/><path class="cls-27" d="M72.18,94.89c-.28,0-.64.28-.79.74l-3.46,9.92,1.59-1.47,2.87-8.26C72.55,95.36,72.45,94.94,72.18,94.89Z"/><path class="cls-27" d="M63.84,99.67c.28-.37.63-.44.79-.17l3.41,6-1.58.34-2.84-5A1.22,1.22,0,0,1,63.84,99.67Z"/><path class="cls-27" d="M72.14,108.4c-.28.37-.63.44-.79.17l-3.41-6,1.58-.33,2.84,5A1.25,1.25,0,0,1,72.14,108.4Z"/><path class="cls-27" d="M63.8,113.18c.28,0,.63-.28.79-.74L68,102.52,66.46,104l-2.87,8.26C63.43,112.71,63.53,113.13,63.8,113.18Z"/><path class="cls-27" d="M69.71,104.91l-3.31,1.9c-.37.21-.67,0-.67-.52V104a1.62,1.62,0,0,1,.67-1.29l3.31-1.9c.37-.21.68,0,.68.51v2.32A1.63,1.63,0,0,1,69.71,104.91Z"/><path class="cls-21" d="M69.27,104.45l-2.42,1.39c-.23.14-.42,0-.42-.32V104a1,1,0,0,1,.42-.8l2.43-1.39c.23-.14.42,0,.42.32v1.57A1,1,0,0,1,69.27,104.45Z"/><polygon class="cls-27" points="70.24 97.04 65.83 99.58 65.83 98.82 70.24 96.28 70.24 97.04"/><polygon class="cls-27" points="70.24 109.91 65.83 112.46 65.83 111.7 70.24 109.15 70.24 109.91"/><polygon class="cls-27" points="70.24 108.39 65.83 110.93 65.83 110.17 70.24 107.63 70.24 108.39"/><polygon class="cls-27" points="70.24 95.38 65.83 97.93 65.83 97.17 70.24 94.62 70.24 95.38"/><polygon class="cls-12" points="60.54 107.34 56.46 104.98 56.46 97.53 60.54 99.89 60.54 107.34"/><polygon class="cls-13" points="58.97 105.61 57.22 104.6 57.22 101.41 58.97 102.42 58.97 105.61"/><polygon class="cls-8" points="59.97 100.7 57.06 99.01 57.06 98.46 59.97 100.16 59.97 100.7"/><polygon class="cls-8" points="59.97 101.84 57.06 100.14 57.06 99.59 59.97 101.29 59.97 101.84"/><path class="cls-14" d="M61.05,92a1.88,1.88,0,0,1-1.13,2.35,1.75,1.75,0,0,1-2.27-1.1,1.9,1.9,0,0,1,1.13-2.36A1.74,1.74,0,0,1,61.05,92Z"/><polygon class="cls-14" points="57.92 93.93 58.54 94.29 60.43 91.14 59.68 90.69 57.92 93.93"/><path class="cls-25" d="M60.55,91.71a1.9,1.9,0,0,1-1.13,2.36A1.75,1.75,0,0,1,57.15,93a1.9,1.9,0,0,1,1.13-2.36A1.76,1.76,0,0,1,60.55,91.71Z"/><path class="cls-2" d="M60.23,91.77a1.57,1.57,0,0,1-.94,2,1.44,1.44,0,0,1-1.88-.92,1.57,1.57,0,0,1,.94-2A1.44,1.44,0,0,1,60.23,91.77Z"/><polygon class="cls-2" points="57.25 93.16 58.19 93.67 59.63 90.99 58.75 90.5 57.25 93.16"/><path class="cls-12" d="M59.5,91.36a1.58,1.58,0,0,1-.94,2,1.45,1.45,0,0,1-1.88-.92,1.58,1.58,0,0,1,.94-2A1.44,1.44,0,0,1,59.5,91.36Z"/><path class="cls-7" d="M57.12,92.35a1.21,1.21,0,0,1,.73-1.52,1.09,1.09,0,0,1,.85,0,1.09,1.09,0,0,0-1-.1A1.21,1.21,0,0,0,57,92.28a1.12,1.12,0,0,0,.62.69A1.1,1.1,0,0,1,57.12,92.35Z"/><path class="cls-8" d="M58.46,93a1.21,1.21,0,0,0,.73-1.52,1.1,1.1,0,0,0-.49-.62,1.09,1.09,0,0,0-.85,0,1.21,1.21,0,0,0-.73,1.52,1.1,1.1,0,0,0,.49.62A1.09,1.09,0,0,0,58.46,93Z"/><path class="cls-7" d="M78,89.65V93.1a1.53,1.53,0,0,1-.63,1.2l-3.84,2.22c-.34.19-.63,0-.63-.48V92.52a4.91,4.91,0,0,0-1.51,3.32l-3.6,2.08A2.56,2.56,0,0,0,66.71,100v17.37A1.89,1.89,0,0,0,69.54,119l8.15-4.71a3.24,3.24,0,0,0,1.63-2.82V91.26C79.32,90.18,78.77,89.58,78,89.65Z"/><path class="cls-9" d="M67.79,97.93A2.56,2.56,0,0,0,66.71,100v3.73L71.43,106l3.34-4.39-6.56-3.89Z"/><polygon class="cls-8" points="71.39 95.85 68.2 97.69 74.77 101.58 76.92 98.9 71.39 95.85"/><polygon class="cls-7" points="67.83 119.04 72.28 121.67 72.28 119.77 66.98 116.88 67.83 119.04"/><polygon class="cls-8" points="83.03 97.04 77.71 93.96 72.73 96.81 78.05 99.89 83.03 97.04"/><polygon class="cls-7" points="77.36 95.14 72.9 92.52 71.39 95.85 76.35 98.72 77.36 95.14"/><polygon class="cls-7" points="78.53 89.72 83.17 92.44 82.89 96.96 77.81 94.02 78.76 92.27 78.53 89.72"/><path class="cls-9" d="M78,89.65l4.45,2.62.72.17-4.61-2.72A1.06,1.06,0,0,0,78,89.65Z"/><path class="cls-11" d="M82.45,92.27v3.45a1.52,1.52,0,0,1-.62,1.2L78,99.14c-.35.2-.63,0-.63-.48V95.14a4.92,4.92,0,0,0-1.52,3.32l-3.59,2.08a2.59,2.59,0,0,0-1.08,2.06V120A1.88,1.88,0,0,0,74,121.61l8.16-4.71a3.25,3.25,0,0,0,1.62-2.81c0-4.59,0-16,0-16V93.88C83.78,92.81,83.22,92.2,82.45,92.27Z"/><path class="cls-13" d="M82.22,113.48v-14l-1,.51-7.21,11v7.06c0,1,.59,1.43,1.33,1l5.5-3A3.2,3.2,0,0,0,82.22,113.48Z"/><polygon class="cls-12" points="80.47 100.15 73.9 103.88 73.9 110.44 80.47 100.15"/><polygon class="cls-8" points="71.17 103.87 66.71 101.22 66.71 116.71 71.17 119.36 71.17 103.87"/><path class="cls-9" d="M72.9,92.52a1.33,1.33,0,0,0-.17.16l-.14.17L77,95.47l.32-.33Z"/><polygon class="cls-11" points="80.36 93.32 77.29 95.1 75.28 93.96 79.47 91.53 80.36 93.32"/><path class="cls-11" d="M79.22,92.14a1.4,1.4,0,0,0,.72,1.21c.38.15.68-.14.67-.65a1.42,1.42,0,0,0-.72-1.2C79.5,91.35,79.2,91.63,79.22,92.14Z"/><path class="cls-12" d="M78.39,106.41s2.69,4.5,0,6.11S78.39,106.41,78.39,106.41Z"/><polygon class="cls-12" points="81.38 113.46 74.9 117.2 74.9 116.25 81.38 112.51 81.38 113.46"/><path class="cls-12" d="M71.34,96.08v2.65a3.57,3.57,0,0,0,.59.06V96.08Z"/><path class="cls-12" d="M72.13,96.08v2.7a2.74,2.74,0,0,0,.5-.07V96.08Z"/><path class="cls-12" d="M70.64,96.08v2.38a2.09,2.09,0,0,0,.5.22v-2.6Z"/><path class="cls-12" d="M72.82,96.08v2.57a2.12,2.12,0,0,0,.5-.25V96.08Z"/><path class="cls-12" d="M73.68,96.08h-.17v2.14a.65.65,0,0,0,.17-.41Z"/><path class="cls-12" d="M70.2,96.08v1.73a.69.69,0,0,0,.25.5V96.08Z"/><path class="cls-2" d="M70.45,96.08v2.23a1.57,1.57,0,0,0,.19.15V96.08Z"/><path class="cls-2" d="M71.14,96.08v2.6l.2,0V96.08Z"/><path class="cls-2" d="M71.93,96.08v2.71h.2v-2.7Z"/><path class="cls-2" d="M72.63,96.08v2.63l.19-.06V96.08Z"/><path class="cls-2" d="M73.32,96.08V98.4a1.07,1.07,0,0,0,.19-.18V96.08Z"/><path class="cls-14" d="M73.68,96.08c0,.54-.78,1-1.74,1s-1.74-.44-1.74-1,.78-1,1.74-1S73.68,95.54,73.68,96.08Z"/><path class="cls-12" d="M73.32,96.08c0,.42-.61.76-1.36.76s-1.35-.34-1.35-.76.6-.76,1.35-.76S73.32,95.66,73.32,96.08Z"/><path class="cls-14" d="M302.09,121.55c0,3.92-6,7.09-13.33,7.09s-13.34-3.17-13.34-7.09,6-7.09,13.34-7.09S302.09,117.63,302.09,121.55Z"/><path class="cls-12" d="M302.08,120.92c0,3.92-6,7.09-13.33,7.09s-13.33-3.17-13.33-7.09,6-7.08,13.33-7.08S302.08,117,302.08,120.92Z"/><rect class="cls-12" x="275.42" y="112.76" width="26.65" height="8.6"/><path class="cls-14" d="M302.08,113.05c0,3.92-6,7.09-13.33,7.09s-13.33-3.17-13.33-7.09,6-7.09,13.33-7.09S302.08,109.14,302.08,113.05Z"/><path class="cls-28" d="M300.92,112.76c0,3.57-5.45,6.46-12.16,6.46s-12.16-2.89-12.16-6.46,5.44-6.47,12.16-6.47S300.92,109.18,300.92,112.76Z"/><path class="cls-14" d="M288.75,108.92c4.59,0,8.35,1.87,8.75,4.26a3,3,0,0,0,0-.42c0-2.58-3.93-4.68-8.78-4.68s-8.78,2.1-8.78,4.68a3,3,0,0,0,0,.42C280.4,110.79,284.16,108.92,288.75,108.92Z"/><ellipse class="cls-2" cx="288.75" cy="113.18" rx="8.75" ry="4.25"/><path class="cls-14" d="M288.76,125.5c-7.1,0-12.89-3-13.29-6.68,0,.14,0,.27,0,.41,0,3.91,6,7.08,13.33,7.08s13.32-3.17,13.32-7.08c0-.14,0-.27,0-.41C301.65,122.55,295.86,125.5,288.76,125.5Z"/><path class="cls-14" d="M288.76,122.57c-7.1,0-12.89-3-13.29-6.69,0,.14,0,.27,0,.41,0,3.91,6,7.09,13.33,7.09s13.32-3.18,13.32-7.09c0-.14,0-.27,0-.41C301.65,119.61,295.86,122.57,288.76,122.57Z"/><path class="cls-14" d="M198,26.84c0,3.92-6,7.1-13.33,7.1s-13.34-3.18-13.34-7.1,6-7.09,13.34-7.09S198,22.93,198,26.84Z"/><path class="cls-12" d="M198,26.22c0,3.91-6,7.09-13.32,7.09s-13.33-3.18-13.33-7.09,6-7.09,13.33-7.09S198,22.3,198,26.22Z"/><rect class="cls-12" x="171.36" y="18.05" width="26.65" height="8.6"/><path class="cls-14" d="M198,18.35c0,3.91-6,7.08-13.32,7.08s-13.33-3.17-13.33-7.08,6-7.09,13.33-7.09S198,14.43,198,18.35Z"/><path class="cls-28" d="M196.85,18.05c0,3.57-5.44,6.47-12.15,6.47s-12.16-2.9-12.16-6.47,5.44-6.46,12.16-6.46S196.85,14.48,196.85,18.05Z"/><path class="cls-14" d="M184.69,14.22c4.58,0,8.34,1.87,8.74,4.25a2,2,0,0,0,0-.42c0-2.58-3.93-4.67-8.78-4.67s-8.79,2.09-8.79,4.67a3,3,0,0,0,0,.42C176.34,16.09,180.1,14.22,184.69,14.22Z"/><path class="cls-2" d="M184.69,22.73c4.58,0,8.34-1.88,8.74-4.26-.4-2.38-4.16-4.25-8.74-4.25s-8.35,1.87-8.75,4.25C176.34,20.85,180.1,22.73,184.69,22.73Z"/><path class="cls-14" d="M184.7,30.8c-7.11,0-12.89-3-13.29-6.68a2.58,2.58,0,0,0,0,.4c0,3.92,6,7.09,13.33,7.09S198,28.44,198,24.52a2.58,2.58,0,0,0,0-.4C197.59,27.84,191.8,30.8,184.7,30.8Z"/><path class="cls-14" d="M184.7,27.86c-7.11,0-12.89-3-13.29-6.68a2.71,2.71,0,0,0,0,.4c0,3.92,6,7.09,13.33,7.09S198,25.5,198,21.58a2.71,2.71,0,0,0,0-.4C197.59,24.9,191.8,27.86,184.7,27.86Z"/><path class="cls-14" d="M182.56,42.68c0,3.92-6,7.1-13.33,7.1s-13.33-3.18-13.33-7.1,6-7.09,13.33-7.09S182.56,38.77,182.56,42.68Z"/><path class="cls-12" d="M182.55,42.06c0,3.91-6,7.09-13.33,7.09S155.9,46,155.9,42.06s6-7.09,13.32-7.09S182.55,38.14,182.55,42.06Z"/><rect class="cls-12" x="155.9" y="33.89" width="26.65" height="8.6"/><path class="cls-14" d="M182.55,34.19c0,3.91-6,7.08-13.33,7.08S155.9,38.1,155.9,34.19s6-7.09,13.32-7.09S182.55,30.27,182.55,34.19Z"/><path class="cls-28" d="M181.39,33.89c0,3.57-5.45,6.47-12.16,6.47s-12.16-2.9-12.16-6.47,5.45-6.46,12.16-6.46S181.39,30.32,181.39,33.89Z"/><path class="cls-14" d="M169.22,30.06c4.59,0,8.35,1.87,8.75,4.25a3,3,0,0,0,0-.42c0-2.58-3.94-4.67-8.79-4.67s-8.78,2.09-8.78,4.67a2,2,0,0,0,0,.42C160.88,31.93,164.64,30.06,169.22,30.06Z"/><ellipse class="cls-2" cx="169.22" cy="34.31" rx="8.75" ry="4.25"/><path class="cls-14" d="M169.23,46.64c-7.1,0-12.89-3-13.29-6.68,0,.13,0,.26,0,.4,0,3.92,6,7.09,13.33,7.09s13.33-3.17,13.33-7.09c0-.14,0-.27,0-.4C182.12,43.68,176.33,46.64,169.23,46.64Z"/><path class="cls-14" d="M169.23,43.7c-7.1,0-12.89-3-13.29-6.68,0,.13,0,.27,0,.4,0,3.92,6,7.09,13.33,7.09s13.33-3.17,13.33-7.09c0-.13,0-.27,0-.4C182.12,40.74,176.33,43.7,169.23,43.7Z"/><path class="cls-12" d="M294.57,161.33a5.31,5.31,0,0,1-1.24-.1l.34-1.09-.17.54.16-.54A14.87,14.87,0,0,0,303.73,157c4.88-3.67,4.87-13.92,3.8-17.48-1.68-5.55-5.16-4.66-5.3-4.62l-.32-1.09s4.69-1.29,6.71,5.38c1.3,4.3,1,14.81-4.2,18.72A16.75,16.75,0,0,1,294.57,161.33Z"/><path class="cls-14" d="M301.09,166.26a5.52,5.52,0,0,1-2.3,4.39c-1.26.73-2.29-.05-2.29-1.74a5.5,5.5,0,0,1,2.29-4.38C300.06,163.8,301.09,164.57,301.09,166.26Z"/><polygon class="cls-14" points="301.76 165.28 300.17 164.34 297.3 170.77 298.85 171.67 301.76 165.28"/><path class="cls-28" d="M302.69,167.2a5.48,5.48,0,0,1-2.3,4.38c-1.26.73-2.29,0-2.29-1.73a5.5,5.5,0,0,1,2.29-4.38C301.66,164.73,302.69,165.51,302.69,167.2Z"/><path class="cls-11" d="M302,167.57a3.91,3.91,0,0,1-1.65,3.15c-.91.53-1.64,0-1.64-1.24a3.93,3.93,0,0,1,1.64-3.15C301.31,165.8,302,166.36,302,167.57Z"/><path class="cls-14" d="M289.38,174.25a2.22,2.22,0,0,1-.92,1.76c-.51.3-.92,0-.92-.69a2.19,2.19,0,0,1,.92-1.76C289,173.26,289.38,173.58,289.38,174.25Z"/><polygon class="cls-14" points="289.65 173.86 289.01 173.48 287.86 176.06 288.48 176.43 289.65 173.86"/><path class="cls-28" d="M290,174.63a2.19,2.19,0,0,1-.92,1.76c-.51.29-.92,0-.92-.7a2.22,2.22,0,0,1,.92-1.76C289.61,173.64,290,174,290,174.63Z"/><rect class="cls-12" x="271.99" y="165.27" width="2.12" height="1.71"/><path class="cls-12" d="M300.14,164.79a4.06,4.06,0,0,1,1-.31v-1.84l-4.74-.19v1.84l-9.79-5.66a.86.86,0,0,0-.85,0l-13.38,7.64a.85.85,0,0,0,0,1.48L286.6,176a.88.88,0,0,0,.86,0l10.09-5.84v-.17A6.09,6.09,0,0,1,300.14,164.79Z"/><path class="cls-28" d="M272.42,165.85l14.18,8.2a.88.88,0,0,0,.86,0l13.3-10.66a.86.86,0,0,0,0-1.48l-14.11-8.15a.86.86,0,0,0-.85,0l-13.38,10.61A.85.85,0,0,0,272.42,165.85Z"/><path class="cls-28" d="M293.77,167.3c0,2.12-3.22,3.83-7.19,3.83s-7.19-1.71-7.19-3.83,3.22-3.82,7.19-3.82S293.77,165.19,293.77,167.3Z"/><ellipse class="cls-8" cx="286.6" cy="163.54" rx="7.36" ry="4.83" transform="translate(-32.62 79.98) rotate(-15.04)"/><polygon class="cls-8" points="293.77 152.05 279.39 152.05 279.39 164.78 293.77 162.45 293.77 152.05"/><polygon class="cls-28" points="280.27 155.92 279.31 156.49 281.99 158.06 283.07 157.43 280.27 155.92"/><path class="cls-8" d="M293.77,151.6a2.3,2.3,0,0,1-.39,1.25c-1-1.51-3.65-2.59-6.8-2.59s-5.82,1.08-6.79,2.59a2.23,2.23,0,0,1-.4-1.25v2.34h0a.77.77,0,0,0,0,.15c0,2.11,3.22,3.82,7.19,3.82s7.19-1.71,7.19-3.82c0-.05,0-.1,0-.15h0Z"/><path class="cls-28" d="M293.77,149.56a2.29,2.29,0,0,1-.39,1.24c-1-1.5-3.65-2.58-6.8-2.58s-5.82,1.08-6.79,2.58a2.23,2.23,0,0,1-.4-1.24v2.34h0a.77.77,0,0,0,0,.15c0,2.11,3.22,3.82,7.19,3.82s7.19-1.71,7.19-3.82c0-.05,0-.1,0-.15h0Z"/><path class="cls-12" d="M286.92,141.42h-.67a6.88,6.88,0,0,0-6.86,6.86v1.28a3,3,0,0,0,1.52,2.34,11.6,11.6,0,0,0,11.34,0,3,3,0,0,0,1.52-2.34v-1.28A6.88,6.88,0,0,0,286.92,141.42Z"/><path class="cls-12" d="M287.49,171.24c.07.15-.05.38-.29.49s-.49.09-.57-.07.05-.38.29-.5A.42.42,0,0,1,287.49,171.24Z"/><path class="cls-12" d="M298.31,162.22c.08.16-.05.38-.29.5a.43.43,0,0,1-.57-.07c-.07-.16.05-.38.29-.5S298.23,162.07,298.31,162.22Z"/><path class="cls-12" d="M275.65,164.4c.08.16,0,.38-.29.49s-.49.09-.56-.07.05-.38.28-.5S275.57,164.24,275.65,164.4Z"/><polygon class="cls-12" points="279.57 159.68 282.23 161.25 281.99 158.06 279.31 156.49 279.57 159.68"/><polygon class="cls-12" points="283.1 157.41 281.99 158.06 282.23 161.25 283.1 160.79 283.1 157.41"/><path class="cls-2" d="M280.89,158.51a.57.57,0,0,0-.77.23s-2.18,4.1-4.63,5.28c-1.57.76-3.07.86-3.82.26a1.94,1.94,0,0,1-.42-2c1.06-4.59,8.17-4.45,8.17-4.45,0-.3-.09-1.14-.09-1.14-.35,0-7.92-.18-9.19,5.33a2.89,2.89,0,0,0,.82,3.16,3.24,3.24,0,0,0,2.06.63,7.06,7.06,0,0,0,3-.76c2.79-1.34,5.05-5.59,5.14-5.77A.56.56,0,0,0,280.89,158.51Z"/><path class="cls-11" d="M295.87,163.22a.56.56,0,0,1-.57-.57V146.31a7.55,7.55,0,0,1,2.72-6.45c.37-.36.54-.65.51-.89-.08-.67-1.63-1.56-3.43-2.6l-1.43-.83c-1.61-.95-2.64-1.15-4.18.31-2,1.89-2.21,3.15-2.19,5.58h-1.15c0-2.56.26-4.22,2.56-6.4,2-1.92,3.67-1.57,5.54-.46l1.42.82c2.32,1.34,3.85,2.22,4,3.46a2.21,2.21,0,0,1-.86,1.84,6.46,6.46,0,0,0-2.37,5.63v16.34A.56.56,0,0,1,295.87,163.22Z"/><path class="cls-29" d="M302.07,133.62a1.81,1.81,0,0,0,.77,1.46c.42.25.76,0,.76-.58a1.83,1.83,0,0,0-.76-1.46C302.41,132.8,302.07,133.06,302.07,133.62Z"/><polygon class="cls-29" points="301.87 133.3 302.36 132.99 303.34 135.12 302.84 135.43 301.87 133.3"/><path class="cls-11" d="M301.59,133.92a1.81,1.81,0,0,0,.77,1.46c.42.24.76,0,.76-.58a1.83,1.83,0,0,0-.76-1.46C301.93,133.09,301.59,133.35,301.59,133.92Z"/><path class="cls-2" d="M294.14,138.4a6.34,6.34,0,0,0-2.41,2.65c-.09.16-.86,1.78-1.13,2.47h0l-10.92,24.56a.51.51,0,0,0,.27.67h0a.5.5,0,0,0,.66-.26L292,142.76a6.35,6.35,0,0,1,2.11-2.93l8.3-4.79c.07,0,.25-.21.1-.73-.1-.32-.43-.51-.61-.41Z"/><path class="cls-11" d="M282.4,172.26s.11-.51.15-.74c.06-.39-.48-.82-.48-.82l-.47.71Z"/><polygon class="cls-11" points="282.14 171.73 276.26 168.33 272.69 171.57 281.11 176.41 282.14 171.73"/><polygon class="cls-12" points="272.69 171.57 272.19 172.2 280.77 177.33 281.11 176.41 272.69 171.57"/><polygon class="cls-29" points="282.14 171.73 282.4 172.26 281.41 176.83 281.11 176.41 282.14 171.73"/><polygon class="cls-12" points="281.11 176.41 280.77 177.33 281.11 177.71 281.41 176.83 281.11 176.41"/><polygon class="cls-28" points="272.19 172.2 272.51 172.58 281.11 177.71 280.77 177.33 272.19 172.2"/><path class="cls-9" d="M276.26,168.33l5.88,3.4s.21-.68,0-1a12.38,12.38,0,0,0-1.63-1c-.34-.24.05-1.16.05-1.16l-.89-.47s-.41.64-.72.64-1.92-1-2.05-1A2.84,2.84,0,0,0,276.26,168.33Z"/><path class="cls-2" d="M286.58,143.31a3.33,3.33,0,0,1,2.73,1,.9.9,0,0,0,.18-.51c0-.86-1.3-1.55-2.91-1.55s-2.9.69-2.9,1.55a1,1,0,0,0,.17.51A3.34,3.34,0,0,1,286.58,143.31Z"/><ellipse class="cls-28" cx="286.58" cy="144.35" rx="2.73" ry="1.03"/><path class="cls-8" d="M280.22,150.07a.78.78,0,0,0,.33.64c.18.1.33,0,.33-.25a.81.81,0,0,0-.33-.64C280.36,149.72,280.22,149.83,280.22,150.07Z"/><path class="cls-8" d="M281.37,150.77a.79.79,0,0,0,.33.63c.19.11.34,0,.34-.25a.77.77,0,0,0-.34-.63C281.52,150.41,281.37,150.53,281.37,150.77Z"/><polygon class="cls-12" points="292.83 156.04 290.51 157.38 290.51 156.73 292.83 155.39 292.83 156.04"/><polygon class="cls-12" points="292.83 157.25 290.51 158.59 290.51 157.94 292.83 156.6 292.83 157.25"/><polygon class="cls-12" points="292.83 158.38 290.51 159.72 290.51 159.07 292.83 157.73 292.83 158.38"/><polygon class="cls-12" points="292.83 159.59 290.51 160.93 290.51 160.28 292.83 158.94 292.83 159.59"/><path class="cls-2" d="M166.26,231.57a4.21,4.21,0,0,0,1.76,3.36c1,.56,1.76,0,1.76-1.33a4.24,4.24,0,0,0-1.76-3.36C167.05,229.68,166.26,230.28,166.26,231.57Z"/><polygon class="cls-2" points="165.59 230.91 166.95 230.11 169.16 235.03 167.75 235.84 165.59 230.91"/><path class="cls-12" d="M164.84,232.39a4.21,4.21,0,0,0,1.76,3.36c1,.56,1.76,0,1.76-1.32a4.21,4.21,0,0,0-1.76-3.36C165.63,230.5,164.84,231.1,164.84,232.39Z"/><path class="cls-13" d="M165.6,232.9a2.11,2.11,0,0,0,.88,1.69c.49.28.89,0,.89-.67a2.12,2.12,0,0,0-.89-1.69C166,232,165.6,232.25,165.6,232.9Z"/><path class="cls-11" d="M168.53,230.37v2.9a11.22,11.22,0,0,1-1.48.61c-.79.27-1.11-.46-.86-1.43a28.34,28.34,0,0,1,1-2.87Z"/><polygon class="cls-8" points="168.53 230.38 169.97 229.56 169.97 232.46 168.53 233.27 168.53 230.38"/><polygon class="cls-9" points="169.65 229.25 168.53 229.89 167.42 229.23 167.16 229.58 168.53 230.38 169.97 229.56 169.65 229.25"/><path class="cls-2" d="M196,214.46a4.21,4.21,0,0,0,1.76,3.36c1,.56,1.76,0,1.76-1.33a4.22,4.22,0,0,0-1.76-3.36C196.79,212.57,196,213.17,196,214.46Z"/><polygon class="cls-2" points="195.34 213.79 196.7 213 198.91 217.91 197.5 218.73 195.34 213.79"/><path class="cls-12" d="M194.58,215.28a4.21,4.21,0,0,0,1.76,3.36c1,.56,1.76,0,1.76-1.33a4.22,4.22,0,0,0-1.76-3.36C195.37,213.39,194.58,214,194.58,215.28Z"/><path class="cls-13" d="M195.34,215.79a2.14,2.14,0,0,0,.88,1.69c.49.28.89,0,.89-.67a2.12,2.12,0,0,0-.89-1.69C195.74,214.83,195.34,215.13,195.34,215.79Z"/><path class="cls-11" d="M198.28,213.26v2.9a12,12,0,0,1-1.48.61c-.8.26-1.12-.47-.87-1.44a29.35,29.35,0,0,1,1-2.87Z"/><polygon class="cls-8" points="198.28 213.26 199.71 212.45 199.71 215.34 198.28 216.16 198.28 213.26"/><polygon class="cls-9" points="199.39 212.13 198.28 212.78 197.16 212.12 196.9 212.46 198.28 213.26 199.71 212.45 199.39 212.13"/><path class="cls-2" d="M152.8,223.69a4.21,4.21,0,0,0,1.76,3.36c1,.56,1.75,0,1.75-1.33a4.2,4.2,0,0,0-1.75-3.36C153.58,221.8,152.8,222.39,152.8,223.69Z"/><polygon class="cls-2" points="152.13 223.02 153.49 222.22 155.7 227.14 154.29 227.96 152.13 223.02"/><path class="cls-12" d="M151.38,224.51a4.19,4.19,0,0,0,1.76,3.36c1,.56,1.75,0,1.75-1.33a4.2,4.2,0,0,0-1.75-3.36C152.16,222.62,151.38,223.21,151.38,224.51Z"/><path class="cls-13" d="M152.13,225a2.12,2.12,0,0,0,.89,1.69c.49.28.88,0,.88-.67a2.11,2.11,0,0,0-.88-1.69C152.53,224.06,152.13,224.36,152.13,225Z"/><path class="cls-11" d="M155.07,222.49v2.89a13,13,0,0,1-1.48.62c-.8.26-1.12-.47-.87-1.44.33-1.25,1-2.87,1-2.87Z"/><polygon class="cls-8" points="155.07 222.49 156.5 221.67 156.5 224.57 155.07 225.38 155.07 222.49"/><polygon class="cls-9" points="156.18 221.36 155.07 222 153.96 221.35 153.69 221.69 155.07 222.49 156.5 221.67 156.18 221.36"/><polygon class="cls-3" points="154.02 192.17 168.9 200.75 168.9 230.05 154.02 221.5 154.02 192.17"/><polygon class="cls-4" points="199.19 183.28 168.9 200.75 168.9 230.05 199.19 212.63 199.19 183.28"/><polygon class="cls-12" points="178.43 190.8 191.43 183.31 191.43 184.48 178.43 191.95 178.43 190.8"/><polygon class="cls-13" points="169.61 201.63 198.51 185.04 198.51 188.49 169.61 205.04 169.61 201.63"/><polygon class="cls-3" points="168.9 206.36 199.19 188.89 199.19 189.81 168.9 207.23 168.9 206.36"/><polygon class="cls-12" points="178.43 197.35 191.43 189.86 191.43 191.03 178.43 198.5 178.43 197.35"/><polygon class="cls-13" points="169.61 207.82 198.51 191.23 198.51 194.68 169.61 211.22 169.61 207.82"/><polygon class="cls-3" points="168.9 212.55 199.19 195.08 199.19 196 168.9 213.42 168.9 212.55"/><polygon class="cls-12" points="178.43 203.54 191.43 196.05 191.43 197.21 178.43 204.69 178.43 203.54"/><polygon class="cls-13" points="169.61 223.37 198.51 206.78 198.51 211.22 169.61 227.77 169.61 223.37"/><polygon class="cls-12" points="178.43 219.09 191.43 211.6 191.43 212.76 178.43 220.24 178.43 219.09"/><polygon class="cls-13" points="169.61 214.15 198.51 197.56 198.51 203.38 169.61 219.92 169.61 214.15"/><polygon class="cls-12" points="178.43 209.87 191.43 202.37 191.43 203.54 178.43 211.01 178.43 209.87"/><polygon class="cls-3" points="168.9 221.72 199.19 204.25 199.19 205.17 168.9 222.59 168.9 221.72"/><polygon class="cls-18" points="199.19 183.28 168.9 200.75 154.02 192.17 184.34 174.77 199.19 183.28"/><polygon class="cls-8" points="168.9 230.06 199.71 212.31 199.71 213.23 168.9 230.98 168.9 230.06"/><polygon class="cls-9" points="168.9 229.48 199.19 212.01 199.71 212.31 168.9 230.07 168.9 229.48"/><polygon class="cls-11" points="168.9 230.06 153.51 221.19 153.51 222.12 168.9 230.98 168.9 230.06"/><polygon class="cls-8" points="154.78 193.99 167.78 201.47 167.78 202.99 154.78 195.5 154.78 193.99"/><polygon class="cls-9" points="168.9 229.48 154.02 220.9 153.51 221.19 168.9 230.07 168.9 229.48"/><path class="cls-12" d="M166.76,201.73a.6.6,0,0,0,.25.48c.14.08.26,0,.26-.19a.62.62,0,0,0-.26-.49C166.87,201.45,166.76,201.54,166.76,201.73Z"/><path class="cls-12" d="M155.56,195.13a.59.59,0,0,0,.26.49c.14.08.25,0,.25-.19a.61.61,0,0,0-.25-.49C155.67,194.86,155.56,194.94,155.56,195.13Z"/><path class="cls-2" d="M171.87,188.19s-2.24-1.35-4.91-2.68a2.12,2.12,0,0,0-1.84-.14,3,3,0,0,0-1.35,1.21c-.31.18-.82.47-1.14.68a4.84,4.84,0,0,1,2.23-2.51,2.8,2.8,0,0,1,2.4.16c2.7,1.34,4.94,2.69,5,2.71Z"/><path class="cls-2" d="M179.59,178.45l-12.66,7.31c-.28.16-.51,0-.51-.39V175.26a1.26,1.26,0,0,1,.51-1L179.59,167c.28-.16.51,0,.51.39v10.11A1.23,1.23,0,0,1,179.59,178.45Z"/><polygon class="cls-2" points="166.61 185.79 167.28 186.17 167.22 185.4 166.61 185.79"/><polygon class="cls-2" points="180.6 167.34 179.92 166.95 179.68 168.29 180.6 167.34"/><path class="cls-12" d="M180.28,178.85l-12.66,7.31c-.28.16-.51,0-.51-.39V175.66a1.23,1.23,0,0,1,.51-1l12.66-7.31c.28-.16.51,0,.51.39v10.11A1.26,1.26,0,0,1,180.28,178.85Z"/><polygon class="cls-2" points="180.35 177.69 167.55 185.08 167.55 175.29 180.35 167.9 180.35 177.69"/><path class="cls-8" d="M174.77,181.67l-1.63.94c-.09,0-.16,0-.16-.12h0a.36.36,0,0,1,.16-.29l1.63-.94c.08,0,.15,0,.15.11h0A.38.38,0,0,1,174.77,181.67Z"/><polygon class="cls-8" points="179.68 178.08 168.2 184.71 168.2 175.79 179.68 169.16 179.68 178.08"/><path class="cls-2" d="M190.78,186.26l-12.23,7.06a1.45,1.45,0,0,1-1.28-.06l-9.35-5.4c-.37-.21-.41-.55-.09-.73l12.23-7.06a1.42,1.42,0,0,1,1.28.05l9.35,5.4C191.06,185.74,191.1,186.07,190.78,186.26Z"/><rect class="cls-2" x="167.61" y="186.63" width="0.84" height="0.84"/><rect class="cls-2" x="190.16" y="185.14" width="0.84" height="0.84"/><path class="cls-12" d="M190.78,185.48l-12.23,7.06a1.42,1.42,0,0,1-1.28,0l-9.35-5.4c-.37-.22-.41-.55-.09-.74l12.23-7a1.42,1.42,0,0,1,1.28,0l9.35,5.4C191.06,185,191.1,185.3,190.78,185.48Z"/><polygon class="cls-2" points="186.93 183.3 174.81 190.3 168.66 186.75 180.78 179.75 186.93 183.3"/><polygon class="cls-2" points="186.25 187.45 181.96 189.93 179.67 188.6 183.95 186.13 186.25 187.45"/><polygon class="cls-13" points="169.19 186.73 170.04 186.25 170.65 186.6 169.8 187.08 169.19 186.73"/><polygon class="cls-13" points="170.08 187.24 170.92 186.75 171.53 187.11 170.69 187.59 170.08 187.24"/><polygon class="cls-13" points="170.96 187.75 172.1 187.09 172.71 187.45 171.57 188.1 170.96 187.75"/><polygon class="cls-13" points="181.9 181.44 182.45 181.12 183.94 181.98 183.39 182.3 181.9 181.44"/><polygon class="cls-13" points="171.84 188.26 172.99 187.6 173.59 187.96 172.45 188.62 171.84 188.26"/><polygon class="cls-13" points="172.73 188.78 174.24 187.9 174.85 188.25 173.34 189.13 172.73 188.78"/><polygon class="cls-13" points="181.98 183.43 184.23 182.13 184.84 182.48 182.59 183.78 181.98 183.43"/><polygon class="cls-13" points="173.61 189.28 174.46 188.8 175.07 189.15 174.22 189.64 173.61 189.28"/><polygon class="cls-13" points="170.25 186.12 171.1 185.63 171.71 185.99 170.86 186.47 170.25 186.12"/><polygon class="cls-13" points="171.13 186.63 171.98 186.15 172.59 186.5 171.74 186.98 171.13 186.63"/><polygon class="cls-13" points="171.32 185.51 172.16 185.02 172.77 185.37 171.93 185.86 171.32 185.51"/><polygon class="cls-13" points="172.2 186.02 173.05 185.53 173.66 185.88 172.81 186.37 172.2 186.02"/><polygon class="cls-13" points="172.38 184.9 173.22 184.41 173.83 184.76 172.99 185.25 172.38 184.9"/><polygon class="cls-13" points="173.26 185.41 174.11 184.92 174.72 185.27 173.87 185.76 173.26 185.41"/><polygon class="cls-13" points="173.44 184.28 174.29 183.79 174.9 184.14 174.05 184.63 173.44 184.28"/><polygon class="cls-13" points="174.33 184.79 175.17 184.3 175.78 184.65 174.93 185.14 174.33 184.79"/><polygon class="cls-13" points="174.5 183.67 175.34 183.18 175.95 183.53 175.11 184.02 174.5 183.67"/><polygon class="cls-13" points="175.38 184.18 176.23 183.69 176.84 184.04 175.99 184.53 175.38 184.18"/><polygon class="cls-13" points="175.57 183.05 176.41 182.56 177.02 182.91 176.18 183.4 175.57 183.05"/><polygon class="cls-13" points="176.45 183.56 177.3 183.07 177.91 183.43 177.06 183.91 176.45 183.56"/><polygon class="cls-13" points="172.34 186.96 173.19 186.47 173.8 186.82 172.95 187.31 172.34 186.96"/><polygon class="cls-13" points="173.23 187.47 174.07 186.98 174.68 187.33 173.83 187.82 173.23 187.47"/><polygon class="cls-13" points="173.41 186.34 174.26 185.85 174.86 186.2 174.02 186.69 173.41 186.34"/><polygon class="cls-13" points="174.29 186.85 175.14 186.36 175.75 186.71 174.9 187.2 174.29 186.85"/><polygon class="cls-13" points="174.47 185.73 175.31 185.24 175.92 185.59 175.08 186.08 174.47 185.73"/><polygon class="cls-13" points="175.35 186.24 176.2 185.75 176.81 186.1 175.96 186.59 175.35 186.24"/><polygon class="cls-13" points="175.53 185.11 176.38 184.63 176.99 184.98 176.14 185.47 175.53 185.11"/><polygon class="cls-13" points="176.42 185.63 177.26 185.14 177.87 185.49 177.03 185.98 176.42 185.63"/><polygon class="cls-13" points="176.59 184.5 177.44 184.01 178.04 184.37 177.2 184.85 176.59 184.5"/><polygon class="cls-13" points="177.47 185.01 178.32 184.53 178.93 184.88 178.08 185.37 177.47 185.01"/><polygon class="cls-13" points="177.66 183.89 178.5 183.4 179.11 183.75 178.27 184.24 177.66 183.89"/><polygon class="cls-13" points="178.54 184.4 179.39 183.91 180 184.26 179.15 184.75 178.54 184.4"/><polygon class="cls-13" points="178.72 183.27 179.57 182.79 180.17 183.14 179.33 183.63 178.72 183.27"/><polygon class="cls-13" points="179.6 183.78 180.45 183.3 181.06 183.65 180.21 184.14 179.6 183.78"/><polygon class="cls-13" points="174.53 187.74 175.38 187.25 175.98 187.6 175.14 188.09 174.53 187.74"/><polygon class="cls-13" points="175.6 187.12 176.44 186.63 177.05 186.98 176.21 187.47 175.6 187.12"/><polygon class="cls-13" points="176.66 186.51 177.5 186.02 178.11 186.37 177.26 186.86 176.66 186.51"/><polygon class="cls-13" points="177.72 185.89 178.57 185.4 179.18 185.75 178.33 186.24 177.72 185.89"/><polygon class="cls-13" points="178.78 185.28 179.63 184.79 180.23 185.15 179.39 185.63 178.78 185.28"/><polygon class="cls-13" points="179.85 184.66 180.69 184.18 181.3 184.53 180.46 185.02 179.85 184.66"/><polygon class="cls-13" points="180.91 184.05 181.75 183.56 182.36 183.91 181.52 184.4 180.91 184.05"/><polygon class="cls-13" points="179.79 182.66 180.63 182.17 181.24 182.52 180.4 183.01 179.79 182.66"/><polygon class="cls-13" points="180.67 183.17 181.52 182.68 182.13 183.03 181.28 183.52 180.67 183.17"/><polygon class="cls-13" points="180.85 182.05 181.69 181.56 182.3 181.91 181.46 182.4 180.85 182.05"/><polygon class="cls-13" points="181.73 182.56 182.58 182.07 183.18 182.42 182.34 182.91 181.73 182.56"/><polygon class="cls-13" points="176.63 182.44 177.47 181.95 178.08 182.31 177.23 182.79 176.63 182.44"/><polygon class="cls-13" points="177.51 182.95 178.35 182.46 178.96 182.81 178.12 183.3 177.51 182.95"/><polygon class="cls-13" points="177.71 181.82 178.55 181.33 179.16 181.68 178.32 182.17 177.71 181.82"/><polygon class="cls-13" points="178.59 182.33 179.44 181.84 180.04 182.19 179.2 182.68 178.59 182.33"/><polygon class="cls-13" points="178.76 181.21 179.61 180.72 180.22 181.07 179.37 181.56 178.76 181.21"/><polygon class="cls-13" points="179.65 181.72 180.5 181.23 181.1 181.58 180.26 182.07 179.65 181.72"/><polygon class="cls-13" points="179.83 180.59 180.68 180.1 181.29 180.45 180.44 180.94 179.83 180.59"/><polygon class="cls-13" points="180.72 181.1 181.56 180.61 182.17 180.96 181.33 181.45 180.72 181.1"/><polygon class="cls-13" points="174.67 188.68 175.52 188.19 176.13 188.54 175.28 189.03 174.67 188.68"/><polygon class="cls-13" points="175.74 188.06 176.59 187.57 177.19 187.92 176.35 188.41 175.74 188.06"/><polygon class="cls-13" points="181.3 184.86 182.15 184.37 182.76 184.72 181.91 185.21 181.3 184.86"/><polygon class="cls-13" points="182.36 184.25 183.21 183.76 183.81 184.11 182.97 184.6 182.36 184.25"/><polygon class="cls-13" points="183.43 183.63 185.08 182.71 185.69 183.06 184.04 183.98 183.43 183.63"/><polygon class="cls-13" points="176.81 187.44 181.08 184.98 181.69 185.33 177.42 187.79 176.81 187.44"/><polygon class="cls-13" points="169.64 188.68 168.43 187.98 168.43 187.59 169.64 188.29 169.64 188.68"/><polygon class="cls-13" points="171.03 189.48 169.83 188.79 169.83 188.4 171.03 189.09 171.03 189.48"/><polygon class="cls-10" points="179.11 171.91 169.13 177.68 169.13 178.07 179.11 172.31 179.11 171.91"/><polygon class="cls-10" points="179.11 174.01 169.13 179.77 169.13 180.16 179.11 174.4 179.11 174.01"/><polygon class="cls-10" points="179.11 176.16 169.13 181.93 169.13 182.32 179.11 176.56 179.11 176.16"/><polygon class="cls-12" points="169.5 183.18 169.15 183.38 169.15 176.37 169.5 176.16 169.5 183.18"/><path class="cls-12" d="M185,222.6c.7-.44,4.23,1.62,4.23,1.62l4.87,1.63-.38,3.67a3.14,3.14,0,0,1-4.13.23c-1.43-1-3.94-2.46-4.74-4.1S184.32,223,185,222.6Z"/><path class="cls-2" d="M191.59,209.13c.91-3,1.65-4.24,3.59-5,1.15-.46,3.81-.09,6.56.5a11.26,11.26,0,0,1-1.32,7.39l-2.72-1.49a16.82,16.82,0,0,0-.94,3.31,63.23,63.23,0,0,0-1,6.8c-.1,1.95-.28,4.84-.28,4.84a4.77,4.77,0,0,1-4.57.7,2.81,2.81,0,0,1-2-3.21S190.93,211.3,191.59,209.13Z"/><path class="cls-6" d="M213.36,189.38s2.09,3.78,1.83,6.58-4.94,5.26-4.94,5.26l-2.83-9Z"/><path class="cls-12" d="M203.36,217.16a1.63,1.63,0,0,1,1.62,1.62v14.94a1.62,1.62,0,1,1-3.23,0V218.78A1.62,1.62,0,0,1,203.36,217.16Z"/><path class="cls-8" d="M203.36,214.05c5.66,0,10.25,2.44,10.25,5.45S209,225,203.36,225s-10.24-2.44-10.24-5.45S197.71,214.05,203.36,214.05Z"/><rect class="cls-8" x="193.12" y="218.47" width="20.49" height="1.19"/><path class="cls-9" d="M203.36,213c5.66,0,10.25,2.44,10.25,5.45s-4.59,5.45-10.25,5.45-10.24-2.44-10.24-5.45S197.71,213,203.36,213Z"/><path class="cls-30" d="M203.36,212.69c5.39,0,9.76,2.32,9.76,5.19s-4.37,5.19-9.76,5.19-9.76-2.33-9.76-5.19S198,212.69,203.36,212.69Z"/><polygon class="cls-30" points="212.61 214.54 213.12 217.88 193.6 217.88 194.12 214.54 212.61 214.54"/><path class="cls-10" d="M203.36,210.38c5.18,0,9.38,2.23,9.38,5s-4.2,5-9.38,5-9.37-2.23-9.37-5S198.19,210.38,203.36,210.38Z"/><path class="cls-10" d="M203.36,210.38c5.18,0,9.38,2.23,9.38,5s-4.2,5-9.38,5-9.37-2.23-9.37-5S198.19,210.38,203.36,210.38Z"/><path class="cls-12" d="M214.33,242a3.29,3.29,0,0,1,1.36,2.61c0,1-.61,1.47-1.36,1A3.26,3.26,0,0,1,213,243C213,242,213.58,241.58,214.33,242Z"/><polygon class="cls-12" points="215.22 245.72 214.12 246.35 212.45 242.53 213.5 241.91 215.22 245.72"/><path class="cls-2" d="M213.23,242.65a3.28,3.28,0,0,1,1.36,2.61c0,1-.61,1.46-1.36,1a3.28,3.28,0,0,1-1.36-2.61C211.87,242.68,212.48,242.22,213.23,242.65Z"/><path class="cls-12" d="M193.16,228.44l21.54,12.44a1.13,1.13,0,1,1-1.13,2L192,230.41a1.14,1.14,0,0,1,1.13-2Z"/><path class="cls-12" d="M192,240.88l21.54-12.44a1.14,1.14,0,1,1,1.13,2l-21.54,12.43a1.13,1.13,0,1,1-1.13-2Z"/><path class="cls-12" d="M193.21,229.57a3.28,3.28,0,0,1,1.36,2.61c0,1-.61,1.46-1.36,1a3.28,3.28,0,0,1-1.36-2.61C191.85,229.6,192.46,229.14,193.21,229.57Z"/><polygon class="cls-12" points="194.1 233.28 193 233.91 191.33 230.08 192.38 229.47 194.1 233.28"/><path class="cls-2" d="M192.11,230.21a3.26,3.26,0,0,1,1.36,2.6c0,1-.61,1.47-1.36,1a3.24,3.24,0,0,1-1.37-2.6C190.74,230.23,191.35,229.77,192.11,230.21Z"/><path class="cls-12" d="M194.54,242.33a3.28,3.28,0,0,1,1.36,2.61c0,1-.61,1.46-1.36,1a3.29,3.29,0,0,1-1.37-2.61C193.17,242.36,193.79,241.9,194.54,242.33Z"/><polygon class="cls-12" points="195.43 246.04 194.33 246.67 192.66 242.85 193.71 242.23 195.43 246.04"/><path class="cls-2" d="M193.44,243a3.26,3.26,0,0,1,1.36,2.6c0,1-.61,1.47-1.36,1a3.27,3.27,0,0,1-1.37-2.61C192.07,243,192.68,242.53,193.44,243Z"/><path class="cls-12" d="M215.19,230.28a3.27,3.27,0,0,1,1.37,2.6c0,1-.62,1.47-1.37,1a3.29,3.29,0,0,1-1.36-2.61C213.83,230.31,214.44,229.84,215.19,230.28Z"/><polygon class="cls-12" points="216.08 233.99 214.99 234.62 213.31 230.79 214.37 230.18 216.08 233.99"/><path class="cls-2" d="M214.09,230.92a3.26,3.26,0,0,1,1.36,2.6c0,1-.61,1.47-1.36,1a3.26,3.26,0,0,1-1.36-2.6C212.73,230.94,213.34,230.48,214.09,230.92Z"/><path class="cls-12" d="M179.5,225.9c.7-.44,4.22,1.62,4.22,1.62l4.88,1.63-.38,3.67a3.15,3.15,0,0,1-4.13.24c-1.43-1-3.94-2.47-4.74-4.11S178.8,226.33,179.5,225.9Z"/><path class="cls-31" d="M213.57,194.56,217,200s-1,1.13-4.35-.52a28,28,0,0,0-6.1-2.39l.63-2.91Z"/><path class="cls-11" d="M211,193.78c-.77-1.44-1.47-2.77-1.47-2.77l-1.31-6.41a4.07,4.07,0,0,1,3.84.54c1,.83,2.44,3.8,3.6,6.27A8.11,8.11,0,0,1,211,193.78Z"/><path class="cls-6" d="M203.76,173.63a3.64,3.64,0,0,1,5.19,1.78c.64,1.35-.26,5-.4,7.53a6.17,6.17,0,0,0,.57,3.24l-1.76.73a5.36,5.36,0,0,1-3.6,0l.05-3.14a8.53,8.53,0,0,1-2.23-.58c-.8-.74-1.22-2.92-.85-5.73C201.28,173.27,203.25,174,203.76,173.63Z"/><path class="cls-2" d="M186.07,212.43c.91-3,1.65-4.23,3.59-5,2.82-1.13,14.72,2.71,14.72,2.71l8.58.44s.44,3.48-2,5.26-8.33,3.54-12.57,1.32c-2-1.06-4.24-2.26-6.19-3.33a16.51,16.51,0,0,0-.94,3.3,63.59,63.59,0,0,0-1,6.8c-.1,2-.28,4.84-.28,4.84a4.79,4.79,0,0,1-4.57.71,2.82,2.82,0,0,1-2-3.22S185.41,214.6,186.07,212.43Z"/><path class="cls-8" d="M199,196.13c-1-2.22,1.32-6.25,2-7.7a6,6,0,0,1,2.78-2.33l6.43-1S213,190,213.37,193c.26,2,0,5.82-.06,11-.07,3.51,2,5.67.48,7.2-2.26,2.33-7.42,4-10.3,3.17-1.72-.46-2.91-2.24-4.07-3.66s-1.93-5.31-.29-6.85C199.33,203.83,201.13,200.67,199,196.13Z"/><path class="cls-23" d="M203.79,185.21s2.57.75,4.08-.43c2.14-1.67,2.38.68,2.38.68a5.66,5.66,0,0,1-2.7,1.83,6.5,6.5,0,0,1-5.17-.41C202.37,185.72,203.79,185.21,203.79,185.21Z"/><path class="cls-6" d="M182.36,189.22c.65,0,.45-1.12.73-1.63s.62-.66.72-.12c.26,1.32.8,4.15,1.42,4.48a46.41,46.41,0,0,1,6.87,4.56s7.68-8.22,9.65-7.74c1,.25,1.44,2.42.55,4.66-1.14,2.86-8.87,8.45-8.87,8.45-2.45.5-8.46-5.73-9.71-7.06-1.07-1.14-3.16-2.07-4.21-2.87-1.53-1.16-2.67-2.73-2.09-4.16.32-.8,1.27-.27,2.34.36A5.74,5.74,0,0,0,182.36,189.22Z"/><path class="cls-11" d="M198.22,198.63c-2.54-.78-4.47-2.86-3.33-5.82,2.21-2.12,4.6-4.66,6.91-4.64,1.17,0,1.94,3.27.73,5.74A18,18,0,0,1,198.22,198.63Z"/><path class="cls-2" d="M202.05,178.57c-.21-.71-.69-2.34-.81-3a3.2,3.2,0,0,1,.86-3c1-1.09,4.66-1.44,6-.68s4.09,2.14,3.11,6.65c-.78,3.64-1.54,4.05-2.64,4.9a6.33,6.33,0,0,1-2.66.94,3.12,3.12,0,0,1-1.11-2.06,16.62,16.62,0,0,1,0-1.76s1-1.9.21-2.58-1.6.42-1.79.89a13,13,0,0,0-.33,4.7,2.81,2.81,0,0,1-1.93.38c-.53-.13-.06-2.17-.06-2.17S201.89,181.29,202.05,178.57Z"/><path class="cls-30" d="M213.8,194.16l2.92-1.68c3.08-1.78,5.6.12,5.6,4.23v11.73l-14.12,8.15V204.86C208.2,200.76,210.72,195.94,213.8,194.16Z"/><polygon class="cls-30" points="220.69 195.07 220.44 192.23 222.83 193.65 220.69 195.07"/><polygon class="cls-30" points="210.53 217.97 208.2 216.59 210.96 213.87 210.53 217.97"/><path class="cls-10" d="M216.13,195.55l2.92-1.69c3.08-1.78,5.6.13,5.6,4.23v11.73L210.53,218V206.25C210.53,202.14,213.05,197.33,216.13,195.55Z"/><path class="cls-12" d="M217.51,213.62c-.11-3.86,0-7,0-8.31,0-1.67,1.83-1.75,1.83-.07,0,2.48.25,7.82.21,9-.08,2.68,1.58,11.1-9.11,11.4-1.07,0-5.44-.26-6.21-.76a18.61,18.61,0,0,0,7.18-2.06C218.35,222.23,217.6,216.93,217.51,213.62Z"/></svg>