<svg id="Layer_1" data-name="Layer 1" xmlns="http://www.w3.org/2000/svg" viewBox="0 0 64.26 14.17"><defs><style>.cls-1{fill:#1e1e1e;}.cls-2{fill:#dba82a;}.cls-3{fill:#3eef25;}</style></defs><title>aArtboard 1</title><path class="cls-1" d="M12.79,13l-.91-9L7.82,13h-.7L2.89,4l-.77,9H.8L1.94,1.08H4.08L8,9.46l3.76-8.38h2.09L15.12,13Z"/><path class="cls-1" d="M24.14,13H17.37V1.18h6.54L23.8,2.36l-4.14.05V6.26l3.89.06-.1,1.08-3.79.08v4.25l4.59.09Z"/><path class="cls-1" d="M30.61,13.16a5.15,5.15,0,0,1-2.25-.45,3.89,3.89,0,0,1-1.5-1.29A5.55,5.55,0,0,1,26,9.47,11.23,11.23,0,0,1,25.76,7,7.09,7.09,0,0,1,26,5a5,5,0,0,1,.7-1.57,4.54,4.54,0,0,1,1-1.12A6.61,6.61,0,0,1,29,1.47a6.72,6.72,0,0,1,1.33-.29,7.39,7.39,0,0,1,1.33-.12h.84a3.53,3.53,0,0,1,.86.07l.78.1.59.11L34.28,3a4.74,4.74,0,0,0-.65-.16l-.91-.16-.93-.13A5.16,5.16,0,0,0,31,2.51h-.62a2.76,2.76,0,0,0-.49.07,2,2,0,0,0-.46.18A2.14,2.14,0,0,0,29,3a2.14,2.14,0,0,0-.71,1.42A14.91,14.91,0,0,0,28.12,7a7.37,7.37,0,0,0,.71,3.61,2.42,2.42,0,0,0,2.28,1.23A11.42,11.42,0,0,0,33,11.71a10.61,10.61,0,0,0,1.75-.42v1a8.48,8.48,0,0,1-1,.37,9.34,9.34,0,0,1-1,.27c-.35.07-.71.12-1.08.16A8.76,8.76,0,0,1,30.61,13.16Z"/><path class="cls-1" d="M44.08,13V7.66H39V13H36.71V1.18H39V6.37h5.08V1.18h2.3V13Z"/><path class="cls-2" d="M60.68,6.55a3.93,3.93,0,0,0-7.78,0,4.9,4.9,0,0,0,0,.54,3.75,3.75,0,0,0,.09.82,3.93,3.93,0,0,0,7.68,0,3.75,3.75,0,0,0,.09-.82A3.27,3.27,0,0,0,60.68,6.55Zm-3.89,3.7a3.16,3.16,0,0,1-3-2.34,3.24,3.24,0,0,1-.11-.82,3.29,3.29,0,0,1,0-.54,3.15,3.15,0,0,1,6.22,0,3.29,3.29,0,0,1,.05.54,3.76,3.76,0,0,1-.11.82A3.17,3.17,0,0,1,56.79,10.25Z"/><path class="cls-2" d="M60.45,7.83a3.63,3.63,0,0,0,0-1.23L60.4,6h.54a4.3,4.3,0,0,0-8.3,0h.45L53,6.6a3.9,3.9,0,0,0,0,1.23l.15.68h-.45a4.3,4.3,0,0,0,8.12,0H60.3ZM60.13,8a3.46,3.46,0,0,1-4.25,2.43A3.5,3.5,0,0,1,53.45,8a3.42,3.42,0,0,1-.12-.9,2.88,2.88,0,0,1,.06-.59,3.45,3.45,0,0,1,6.81,0,3.81,3.81,0,0,1,0,.59A3.41,3.41,0,0,1,60.13,8ZM61,8h0c0-.13,0-.27.07-.41C61.05,7.68,61,7.82,61,8Zm0-1.42h0V6.8A.61.61,0,0,0,61.05,6.53Z"/><path class="cls-2" d="M56.79.36A6.73,6.73,0,0,0,50.15,6H52a4.87,4.87,0,0,1,2.75-3.35,4.69,4.69,0,0,1,2-.46A4.92,4.92,0,0,1,61.58,6h1.85A6.72,6.72,0,0,0,56.79.36Zm6.73,6.17H61.68a5.23,5.23,0,0,1,0,.56,6.23,6.23,0,0,1-.07.86h1.82a6.2,6.2,0,0,0,0-.86,2.63,2.63,0,0,0,0-.56ZM59.78,11a4.92,4.92,0,0,1-7.7-2.51H50.21a6.73,6.73,0,0,0,13.16,0H61.51A4.92,4.92,0,0,1,59.77,11ZM51.87,7.09a5.23,5.23,0,0,1,0-.56H50.08v.56a8.27,8.27,0,0,0,.05.86H52A4.12,4.12,0,0,1,51.87,7.09Z"/><path class="cls-2" d="M56.61,4.52V6.17a.2.2,0,0,1-.2.2.2.2,0,0,1-.15-.06L55.08,5.13A2.62,2.62,0,0,1,56.61,4.52Z"/><path class="cls-2" d="M58.48,5.13,57.3,6.31a.21.21,0,0,1-.29,0A.17.17,0,0,1,57,6.17V4.52A2.62,2.62,0,0,1,58.48,5.13Z"/><path class="cls-2" d="M59.44,6.86H57.78a.21.21,0,0,1-.2-.22.19.19,0,0,1,.05-.13l1.13-1.13A2.57,2.57,0,0,1,59.44,6.86Z"/><path class="cls-2" d="M55.8,6.86H54.13a2.79,2.79,0,0,1,.68-1.5l1.13,1.13a.21.21,0,0,1,0,.3A.24.24,0,0,1,55.8,6.86Z"/><path class="cls-2" d="M57,9.56V7.91a.21.21,0,0,1,.22-.2.19.19,0,0,1,.13,0L58.48,9A2.65,2.65,0,0,1,57,9.56Z"/><path class="cls-2" d="M55.08,9l1.15-1.2a.21.21,0,0,1,.29,0,.22.22,0,0,1,.06.15V9.56A2.65,2.65,0,0,1,55.08,9Z"/><path class="cls-2" d="M54.13,7.22H55.8a.21.21,0,0,1,.2.22.16.16,0,0,1-.06.13L54.81,8.7A2.81,2.81,0,0,1,54.13,7.22Z"/><path class="cls-2" d="M57.78,7.22h1.66a2.65,2.65,0,0,1-.68,1.5L57.63,7.59a.21.21,0,0,1,.15-.37Z"/><path class="cls-3" d="M63.89,6.53V8H61c0-.13,0-.27.07-.41v-1Z"/><path class="cls-3" d="M52.49,8H49.68V6.53h2.76a2.62,2.62,0,0,0,0,.56A3.55,3.55,0,0,0,52.49,8Z"/><circle class="cls-2" cx="56.79" cy="7.09" r="0.37"/></svg>