<svg id="Layer_1" data-name="Layer 1" xmlns="http://www.w3.org/2000/svg" viewBox="0 0 119 27"><defs><style>.cls-1{fill:#1e1e1e;}.cls-2{fill:#dba82a;}.cls-3{fill:#3eef25;}</style></defs><title>aArtboard 6</title><path class="cls-1" d="M33.87,21,32.72,9.53,27.56,21h-.88L21.3,9.53,20.33,21H18.65L20.1,5.87h2.72l5,10.64L32.59,5.87h2.65L36.83,21Z"/><path class="cls-1" d="M48.29,21h-8.6V6H48L47.85,7.5l-5.25.06v4.89l4.94.07-.13,1.38L42.6,14V19.4l5.82.11Z"/><path class="cls-1" d="M56.5,21.21a6.46,6.46,0,0,1-2.85-.57A5,5,0,0,1,51.74,19a7,7,0,0,1-1.07-2.47,14.4,14.4,0,0,1-.33-3.21,8.92,8.92,0,0,1,.33-2.53,6.77,6.77,0,0,1,.89-2,5.9,5.9,0,0,1,1.3-1.42,7.72,7.72,0,0,1,1.56-1A8.07,8.07,0,0,1,56.11,6a9,9,0,0,1,1.68-.16l1.07,0c.37,0,.74,0,1.09.09l1,.13.75.14-.54,2.14a6.12,6.12,0,0,0-.83-.21c-.36-.07-.74-.14-1.15-.2S58.36,7.8,58,7.76a7.85,7.85,0,0,0-1-.07c-.3,0-.56,0-.79,0a3,3,0,0,0-.62.09A2.52,2.52,0,0,0,55,8a3.33,3.33,0,0,0-.52.32,2.74,2.74,0,0,0-.9,1.8,18.87,18.87,0,0,0-.24,3.29,9.36,9.36,0,0,0,.9,4.59,3.08,3.08,0,0,0,2.89,1.56,16,16,0,0,0,2.34-.19,12.92,12.92,0,0,0,2.22-.53v1.25a9.37,9.37,0,0,1-1.2.47,11.61,11.61,0,0,1-1.32.34c-.45.09-.91.16-1.37.21A12.31,12.31,0,0,1,56.5,21.21Z"/><path class="cls-1" d="M73.61,21V14.23H67.15V21h-2.9V6h2.9v6.59h6.46V6h2.91V21Z"/><path class="cls-2" d="M94.94,12.78a5.25,5.25,0,0,0-10.4,0,5.81,5.81,0,0,0-.05.72,5,5,0,0,0,.12,1.1,5.25,5.25,0,0,0,10.26,0A5,5,0,0,0,95,13.5,4.36,4.36,0,0,0,94.94,12.78Zm-5.2,4.94a4.21,4.21,0,0,1-4.07-3.12,4,4,0,0,1-.15-1.1,4.37,4.37,0,0,1,.06-.72,4.22,4.22,0,0,1,8.32,0,4.37,4.37,0,0,1,.06.72,4.42,4.42,0,0,1-.14,1.1A4.23,4.23,0,0,1,89.74,17.72Z"/><path class="cls-2" d="M94.64,14.49a5.08,5.08,0,0,0,.06-1.64L94.57,12h.72a5.75,5.75,0,0,0-11.1,0h.6l-.13.85a5.08,5.08,0,0,0,.06,1.64l.2.91h-.61a5.75,5.75,0,0,0,10.86,0h-.73Zm-.43.22a4.63,4.63,0,0,1-8.93,0,4.47,4.47,0,0,1-.16-1.21,4.15,4.15,0,0,1,.07-.79,4.62,4.62,0,0,1,9.11,0,5.16,5.16,0,0,1,.06.79A4.89,4.89,0,0,1,94.21,14.71Zm1.16-.06h0a5.07,5.07,0,0,0,.09-.54A5.07,5.07,0,0,1,95.37,14.65Zm.07-1.9h0c0,.12,0,.24,0,.37C95.47,13,95.46,12.87,95.44,12.75Z"/><path class="cls-2" d="M89.74,4.5A9,9,0,0,0,80.87,12h2.46A6.54,6.54,0,0,1,87,7.52a6.43,6.43,0,0,1,2.74-.61A6.58,6.58,0,0,1,96.15,12h2.47A9,9,0,0,0,89.74,4.5Zm9,8.25H96.28a6.3,6.3,0,0,1,0,.75,7.23,7.23,0,0,1-.1,1.15h2.44a8.77,8.77,0,0,0,.07-1.15Q98.74,13.13,98.71,12.75Zm-5,6A6.58,6.58,0,0,1,83.44,15.4h-2.5a9,9,0,0,0,17.6,0H96.05A6.58,6.58,0,0,1,93.73,18.73ZM83.16,13.5a6.17,6.17,0,0,1,0-.75H80.77q0,.38,0,.75a10.92,10.92,0,0,0,.07,1.15h2.45A6.23,6.23,0,0,1,83.16,13.5Z"/><path class="cls-2" d="M89.5,10.06v2.21a.27.27,0,0,1-.46.19l-1.59-1.58A3.59,3.59,0,0,1,89.5,10.06Z"/><path class="cls-2" d="M92,10.88l-1.58,1.58a.27.27,0,0,1-.47-.19V10.06A3.56,3.56,0,0,1,92,10.88Z"/><path class="cls-2" d="M93.29,13.19H91.06a.28.28,0,0,1-.19-.47l1.51-1.51A3.56,3.56,0,0,1,93.29,13.19Z"/><path class="cls-2" d="M88.42,13.19H86.19a3.7,3.7,0,0,1,.91-2l1.51,1.51A.28.28,0,0,1,88.42,13.19Z"/><path class="cls-2" d="M90,16.81V14.6a.28.28,0,0,1,.47-.2L92,16A3.56,3.56,0,0,1,90,16.81Z"/><path class="cls-2" d="M87.45,16,89,14.4a.27.27,0,0,1,.46.2v2.21A3.59,3.59,0,0,1,87.45,16Z"/><path class="cls-2" d="M86.19,13.68h2.23a.28.28,0,0,1,.19.47L87.1,15.66A3.7,3.7,0,0,1,86.19,13.68Z"/><path class="cls-2" d="M91.06,13.68h2.23a3.56,3.56,0,0,1-.91,2l-1.51-1.51A.28.28,0,0,1,91.06,13.68Z"/><path class="cls-3" d="M99.24,12.75v1.9H95.37a5.07,5.07,0,0,0,.09-.54,6.08,6.08,0,0,0,0-.61c0-.13,0-.26,0-.38s0-.25,0-.37Z"/><path class="cls-3" d="M84,14.65H80.24v-1.9h3.68a6,6,0,0,0,0,.75A5.47,5.47,0,0,0,84,14.65Z"/><circle class="cls-2" cx="89.74" cy="13.5" r="0.5"/></svg>